<?xml version="1.0" encoding="UTF-8" standalone="no"?>
<svg
   version="1.1"
   width="16"
   height="16"
   viewBox="-1 -1 18 18"
   id="svg13"
   sodipodi:docname="Haxe_logo_hxcpp.svg"
   inkscape:version="1.4.4 (dcaf3e7, 2026-05-05)"
   xmlns:inkscape="http://www.inkscape.org/namespaces/inkscape"
   xmlns:sodipodi="http://sodipodi.sourceforge.net/DTD/sodipodi-0.dtd"
   xmlns="http://www.w3.org/2000/svg"
   xmlns:svg="http://www.w3.org/2000/svg">
  <defs
     id="defs13" />
  <sodipodi:namedview
     id="namedview13"
     pagecolor="#505050"
     bordercolor="#ffffff"
     borderopacity="1"
     inkscape:showpageshadow="0"
     inkscape:pageopacity="0"
     inkscape:pagecheckerboard="1"
     inkscape:deskcolor="#505050"
     showgrid="false"
     inkscape:zoom="83.394406"
     inkscape:cx="17.087477"
     inkscape:cy="9.3471497"
     inkscape:window-width="3840"
     inkscape:window-height="2066"
     inkscape:window-x="8"
     inkscape:window-y="2150"
     inkscape:window-maximized="1"
     inkscape:current-layer="svg13" />
  <g
     id="surface1">
    <path
       style=" stroke:none;fill-rule:nonzero;fill:rgb(98.431373%,78.039216%,2.745098%);fill-opacity:1;"
       d="M 8 2 L 3.445312 1.496094 L 0 0 L 4 0 L 8 2 "
       id="path1" />
    <path
       style=" stroke:none;fill-rule:nonzero;fill:rgb(98.431373%,78.039216%,2.745098%);fill-opacity:1;"
       d="M 8 2 L 12.660156 1.601562 L 16 0 L 12 0 L 8 2 "
       id="path2" />
    <path
       style=" stroke:none;fill-rule:nonzero;fill:rgb(96.470588%,52.941176%,7.058824%);fill-opacity:1;"
       d="M 8 14 L 12.347656 14.15625 L 16 16 L 12 16 L 8 14 "
       id="path3" />
    <path
       style=" stroke:none;fill-rule:nonzero;fill:rgb(94.901961%,36.078431%,9.803922%);fill-opacity:1;"
       d="M 8 14 L 3.617188 14 L 0 16 L 4 16 L 8 14 "
       id="path4" />
    <path
       style=" stroke:none;fill-rule:nonzero;fill:rgb(100%,94.901961%,0%);fill-opacity:1;"
       d="M 2 8 L 2 12.207031 L 0 16 L 0 12 L 2 8 "
       id="path5" />
    <path
       style=" stroke:none;fill-rule:nonzero;fill:rgb(100%,94.901961%,0%);fill-opacity:1;"
       d="M 2 8 L 1.667969 3.824219 L 0 0 L 0 4 L 2 8 "
       id="path6" />
    <path
       style=" stroke:none;fill-rule:nonzero;fill:rgb(94.509804%,27.843137%,11.372549%);fill-opacity:1;"
       d="M 14 8 L 14.433594 3.617188 L 16 0 L 16 4 L 14 8 "
       id="path7" />
    <path
       style=" stroke:none;fill-rule:nonzero;fill:rgb(94.509804%,27.843137%,11.372549%);fill-opacity:1;"
       d="M 14 8 L 14.363281 12.695312 L 16 16 L 16 12 L 14 8 "
       id="path8" />
    <path
       style=" stroke:none;fill-rule:nonzero;fill:rgb(98.039216%,69.803922%,4.313725%);fill-opacity:1;"
       d="M 0 0 L 8 2 L 6.714844 7.09375 L 2 8 L 0 0 "
       id="path9" />
    <path
       style=" stroke:none;fill-rule:nonzero;fill:rgb(95.686275%,44.705882%,8.627451%);fill-opacity:1;"
       d="M 16 0 L 14 8 L 8.625 7.027344 L 8 2 L 16 0 "
       id="path10" />
    <path
       style=" stroke:none;fill-rule:nonzero;fill:rgb(94.901961%,36.078431%,9.803922%);fill-opacity:1;"
       d="M 16 16 L 8 14 L 8.90625 8.695312 L 14 8 L 16 16 "
       id="path11" />
    <path
       style=" stroke:none;fill-rule:nonzero;fill:rgb(97.254902%,61.176471%,5.490196%);fill-opacity:1;"
       d="M 0 16 L 2 8 L 6.816406 9.078125 L 8 14 L 0 16 "
       id="path12" />
    <path
       style=" stroke:none;fill-rule:nonzero;fill:rgb(96.470588%,52.941176%,7.058824%);fill-opacity:1;"
       d="M 8 2 L 2 8 L 8 14 L 14 8 L 8 2 "
       id="path13" />
  </g>
  <g
     id="text1"
     style="font-weight:bold;font-size:6.6px;font-family:Verdana;-inkscape-font-specification:'Verdana, Bold';stroke-width:1.2375"
     aria-label="&#10;CPP">
    <path
       d="m 3.4564289,13.691497 q -0.5349609,0 -0.9893554,-0.157911 -0.4511719,-0.15791 -0.7766602,-0.470507 -0.3254882,-0.312598 -0.505957,-0.779883 -0.1772461,-0.467285 -0.1772461,-1.07959 0,-0.57041 0.1708008,-1.034473 Q 1.3488118,9.7050708 1.6743001,9.3731372 1.9868977,9.0540943 2.4477375,8.8800708 2.9118,8.7060474 3.4596516,8.7060474 q 0.3029297,0 0.5446289,0.035449 0.2449219,0.032227 0.4511719,0.087012 0.2159179,0.061231 0.3899414,0.1385742 0.1772461,0.074121 0.309375,0.1385743 V 10.269036 H 5.0129719 Q 4.9227375,10.191692 4.7841633,10.085344 4.6488117,9.9789966 4.4747883,9.8758716 4.2975422,9.7727466 4.0912922,9.7018482 q -0.20625,-0.070899 -0.4415039,-0.070899 -0.2610351,0 -0.496289,0.083789 -0.2352539,0.080566 -0.4350586,0.2707031 -0.1901367,0.1836911 -0.309375,0.4866211 -0.1160156,0.30293 -0.1160156,0.734766 0,0.451171 0.1256835,0.754101 0.1289063,0.30293 0.3222657,0.476953 0.196582,0.177246 0.4382812,0.25459 0.2416992,0.07412 0.4769531,0.07412 0.225586,0 0.4447266,-0.06768 0.2223633,-0.06768 0.4092773,-0.183691 0.1579102,-0.09346 0.2932617,-0.199805 0.1353516,-0.106347 0.2223633,-0.183691 h 0.1289063 v 1.147266 q -0.1804688,0.08057 -0.3448243,0.151464 -0.1643554,0.0709 -0.3448242,0.122461 -0.2352539,0.06768 -0.4415039,0.103125 -0.20625,0.03545 -0.5671875,0.03545 z"
       id="path14" />
    <path
       d="m 10.024202,10.314153 q 0,0.322265 -0.1127925,0.63164 -0.112793,0.306153 -0.3222656,0.515625 -0.2868164,0.283594 -0.6413086,0.428614 -0.3512696,0.145019 -0.8765625,0.145019 H 7.301058 v 1.562989 h -1.2375 V 8.7995044 h 2.0367187 q 0.4576172,0 0.7702148,0.080566 0.3158203,0.077344 0.5575195,0.2352539 0.2900391,0.1901367 0.4415039,0.4866211 0.1546871,0.2964844 0.1546871,0.7122072 z m -1.2793941,0.029 q 0,-0.203028 -0.1095703,-0.3480471 Q 8.5256673,9.8468677 8.3806478,9.7888599 8.1872884,9.7115161 8.003597,9.7050708 7.8199056,9.6954028 7.5137533,9.6954028 H 7.301058 v 1.4373052 h 0.3544921 q 0.3158203,0 0.5188477,-0.03867 0.20625,-0.03867 0.3448242,-0.154688 0.1192383,-0.103125 0.1708008,-0.244922 0.054785,-0.145019 0.054785,-0.351269 z m 6.1166021,-0.029 q 0,0.322265 -0.112793,0.63164 -0.112793,0.306153 -0.322266,0.515625 -0.286816,0.283594 -0.641308,0.428614 -0.35127,0.145019 -0.876563,0.145019 h -0.770215 v 1.562989 h -1.2375 V 8.7995044 h 2.036719 q 0.457617,0 0.770215,0.080566 0.31582,0.077344 0.557519,0.2352539 0.290039,0.1901367 0.441504,0.4866211 0.154688,0.2964844 0.154688,0.7122072 z m -1.279395,0.029 q 0,-0.203028 -0.10957,-0.3480471 -0.10957,-0.1482422 -0.25459,-0.20625 -0.193359,-0.077344 -0.377051,-0.083789 -0.183691,-0.00967 -0.489843,-0.00967 h -0.212696 v 1.4373052 h 0.354492 q 0.315821,0 0.518848,-0.03867 0.20625,-0.03867 0.344824,-0.154688 0.119239,-0.103125 0.170801,-0.244922 0.05479,-0.145019 0.05479,-0.351269 z"
       id="path15" />
  </g>
  <path
     d="m 7.5726823,8.2456417 h -1.2375 V 6.1315792 h -1.827246 v 2.1140625 h -1.2375 V 3.4471066 h 1.2375 v 1.7563477 h 1.827246 V 3.4471066 h 1.2375 z m 5.5751957,0 h -1.43086 L 10.682546,6.6665402 9.628737,8.2456417 H 8.2623308 L 9.9638933,5.8286496 8.29778,3.4471066 H 9.7254167 L 10.72444,4.9424191 11.752467,3.4471066 h 1.369629 l -1.675781,2.3332031 z"
     id="text3"
     style="font-weight:bold;font-size:6.6px;font-family:Verdana;-inkscape-font-specification:'Verdana, Bold';stroke-width:1.2375"
     aria-label="HX" />
</svg>
