<?xml version="1.0" encoding="UTF-8" standalone="no"?>
<svg
   xmlns:dc="http://purl.org/dc/elements/1.1/"
   xmlns:cc="http://creativecommons.org/ns#"
   xmlns:rdf="http://www.w3.org/1999/02/22-rdf-syntax-ns#"
   xmlns:svg="http://www.w3.org/2000/svg"
   xmlns="http://www.w3.org/2000/svg"
   xmlns:sodipodi="http://sodipodi.sourceforge.net/DTD/sodipodi-0.dtd"
   xmlns:inkscape="http://www.inkscape.org/namespaces/inkscape"
   width="16"
   height="16"
   viewBox="0 0 16 16"
   version="1.1"
   id="svg1143"
   sodipodi:docname="c_logo_flat.svg"
   inkscape:version="1.0.1 (3bc2e813f5, 2020-09-07)">
  <metadata
     id="metadata1149">
    <rdf:RDF>
      <cc:Work
         rdf:about="">
        <dc:format>image/svg+xml</dc:format>
        <dc:type
           rdf:resource="http://purl.org/dc/dcmitype/StillImage" />
        <dc:title></dc:title>
      </cc:Work>
    </rdf:RDF>
  </metadata>
  <defs
     id="defs1147" />
  <sodipodi:namedview
     pagecolor="#ffffff"
     bordercolor="#666666"
     borderopacity="1"
     objecttolerance="10"
     gridtolerance="10"
     guidetolerance="10"
     inkscape:pageopacity="0"
     inkscape:pageshadow="2"
     inkscape:window-width="1035"
     inkscape:window-height="899"
     id="namedview1145"
     showgrid="false"
     inkscape:zoom="12.625"
     inkscape:cx="8"
     inkscape:cy="8"
     inkscape:window-x="0"
     inkscape:window-y="0"
     inkscape:window-maximized="0"
     inkscape:current-layer="svg1143" />
  <g
     fill="none"
     fill-rule="evenodd"
     id="g1141">
    <path
       fill="#40B6E0"
       fill-opacity=".6"
       d="M15,8 C15,11.866 11.866,15 8,15 C4.134,15 1,11.866 1,8 C1,4.134 4.134,1 8,1 C11.866,1 15,4.134 15,8"
       id="path1137" />
    <path
       fill="#231F20"
       fill-opacity=".7"
       d="M5,4.28253174 C4.53,4.74153174 4.028,4.978 3.1,5 C2.061,5.022 1,4.2794 1,3.0004 C1,1.7124 1.971,1 3.1,1 C3.94833171,1 4.54833171,1.18475342 4.9,1.55426025 L5.5162,0.836730957 C4.8293999,0.270175195 4.28826904,0.0004 3.0982,0.0004 C1.3402,0.0004 0.0002,1.3584 0.0002,3.0004 C0.0002,4.6824 1.3642,6.0004 3.0022,6.0004 C4.29284668,6.0004 5.0232,5.5934 5.6162,4.9814 C5.2054,4.51548783 5,4.28253174 5,4.28253174 Z"
       transform="translate(5 5)"
       id="path1139" />
  </g>
  <path
     fill="#fbc707"
     d="m 13.149233,8.9266427 -1.565295,0.762745 1.823765,-0.15274 1.306825,-0.610005 z m -4.6958864,0 1.3473281,0.570343 1.7832633,0.192402 -1.565296,-0.762745 z"
     id="path120"
     style="stroke-width:0.193158" />
  <path
     fill="#f68712"
     d="m 11.583918,14.265842 h 3.91e-4 l -3.91e-4,-1.91e-4 z m 1.565296,0.762745 h 1.565295 l -1.42931,-0.703251 -1.70089,-0.05949 z"
     id="path122"
     style="stroke-width:0.193158;stroke-miterlimit:4;stroke-dasharray:none" />
  <path
     fill="#f25c19"
     d="m 11.583566,14.265842 h 3.91e-4 v -1.91e-4 z m -1.7147814,0 -1.4154185,0.762745 h 1.5652959 l 1.564904,-0.762745 z"
     id="path124"
     style="stroke-width:0.193158" />
  <polygon
     fill="#fff200"
     points="4,16 0,23.999 0,31.999 4,24.417 "
     id="polygon126"
     transform="matrix(0.19566195,0,0,0.19068633,8.4532879,8.9266427)" />
  <polygon
     fill="#fff200"
     points="3.339,7.652 0,0 0,8 4,16 "
     id="polygon128"
     transform="matrix(0.19566195,0,0,0.19068633,8.4532879,8.9266427)" />
  <polygon
     fill="#f1471d"
     points="32,8 32,0 28.869,7.234 27.999,16 "
     id="polygon130"
     transform="matrix(0.19566195,0,0,0.19068633,8.4532879,8.9266427)" />
  <polygon
     fill="#f1471d"
     points="27.999,16 28.731,25.391 32.001,32 32.001,24 "
     id="polygon132"
     transform="matrix(0.19566195,0,0,0.19068633,8.4532879,8.9266427)" />
  <polygon
     fill="#fab20b"
     points="0,0.001 4,16 13.426,14.19 16,4 0,0 "
     id="polygon134"
     transform="matrix(0.19566195,0,0,0.19068633,8.4532879,8.9266427)" />
  <path
     fill="#f47216"
     d="m 14.714548,8.9266427 v 1.91e-4 z m -3.130591,0.762745 0.244969,1.9165893 2.102778,0.371648 0.782844,-3.0507913 z"
     id="path136"
     style="stroke-width:0.193158" />
  <polygon
     fill="#f25c19"
     points="16,28 32,32 32,31.999 27.999,16.001 17.808,17.392 "
     id="polygon138"
     transform="matrix(0.19566195,0,0,0.19068633,8.4532879,8.9266427)" />
  <path
     fill="#f89c0e"
     d="m 8.453327,15.02832 3.130591,-0.762554 -0.46274,-1.877117 -1.8853989,-0.410929 z m 0,0 v 1.91e-4 z"
     id="path140"
     style="stroke-width:0.193158" />
  <polyline
     fill="#f68712"
     points="16 4 4 16 16 28 27.999 16 16 4"
     id="polyline142"
     transform="matrix(0.19566195,0,0,0.19068633,8.4532879,8.9266427)" />
  <path
     style="opacity:1;fill:none;stroke:#000000;stroke-width:0.0386316;stroke-linecap:butt;stroke-linejoin:miter;stroke-miterlimit:4;stroke-dasharray:none;stroke-opacity:1"
     d="M 11.583879,9.6893877 9.2359356,11.977625"
     id="path154" />
  <path
     style="fill:none;stroke:#000000;stroke-width:0.0386316;stroke-linecap:butt;stroke-linejoin:miter;stroke-miterlimit:4;stroke-dasharray:none;stroke-opacity:1"
     d="m 11.583957,9.6893877 2.347669,2.2882373"
     id="path979" />
  <path
     style="fill:none;stroke:#000000;stroke-width:0.0386316;stroke-linecap:butt;stroke-linejoin:miter;stroke-miterlimit:4;stroke-dasharray:none;stroke-opacity:1"
     d="m 13.931626,11.977815 -2.347747,2.288046"
     id="path981" />
  <path
     style="fill:none;stroke:#000000;stroke-width:0.0386316;stroke-linecap:butt;stroke-linejoin:miter;stroke-miterlimit:4;stroke-dasharray:none;stroke-opacity:1"
     d="m 9.2357791,11.97772 2.3477869,2.288122"
     id="path983" />
  <path
     style="fill:none;stroke:#000000;stroke-width:0.0386316;stroke-linecap:butt;stroke-linejoin:miter;stroke-miterlimit:4;stroke-dasharray:none;stroke-opacity:1"
     d="m 11.583879,9.6893877 3.130669,-0.762554"
     id="path985" />
  <path
     style="fill:none;stroke:#000000;stroke-width:0.0386316;stroke-linecap:butt;stroke-linejoin:miter;stroke-miterlimit:4;stroke-dasharray:none;stroke-opacity:1"
     d="M 13.931704,11.977625 14.714548,8.9268337"
     id="path987" />
  <path
     style="fill:none;stroke:#000000;stroke-width:0.0386316;stroke-linecap:butt;stroke-linejoin:miter;stroke-miterlimit:4;stroke-dasharray:none;stroke-opacity:1"
     d="M 11.583879,9.6893877 8.4532879,8.9266427"
     id="path989" />
  <path
     style="fill:none;stroke:#000000;stroke-width:0.0386316;stroke-linecap:butt;stroke-linejoin:miter;stroke-miterlimit:4;stroke-dasharray:none;stroke-opacity:1"
     d="M 9.2357791,11.97772 8.4532879,8.9268337"
     id="path991" />
  <path
     style="fill:none;stroke:#000000;stroke-width:0.0386316;stroke-linecap:butt;stroke-linejoin:miter;stroke-miterlimit:4;stroke-dasharray:none;stroke-opacity:1"
     d="M 8.4533661,15.028587 11.583566,14.265842"
     id="path993" />
  <path
     style="fill:none;stroke:#000000;stroke-width:0.0386316;stroke-linecap:butt;stroke-linejoin:miter;stroke-miterlimit:4;stroke-dasharray:none;stroke-opacity:1"
     d="m 9.2357791,11.97772 -0.782413,3.050867"
     id="path995" />
  <path
     style="fill:none;stroke:#000000;stroke-width:0.0386316;stroke-linecap:butt;stroke-linejoin:miter;stroke-miterlimit:4;stroke-dasharray:none;stroke-opacity:1"
     d="m 13.931626,11.977815 0.783039,3.050791"
     id="path997" />
  <path
     style="fill:none;stroke:#000000;stroke-width:0.0386316;stroke-linecap:butt;stroke-linejoin:miter;stroke-miterlimit:4;stroke-dasharray:none;stroke-opacity:1"
     d="m 11.584309,14.265842 3.130161,0.762573"
     id="path999" />
  <path
     style="fill:none;stroke:#000000;stroke-width:0.0386316;stroke-linecap:butt;stroke-linejoin:miter;stroke-miterlimit:4;stroke-dasharray:none;stroke-opacity:1"
     d="M 11.583879,9.6893877 10.018642,8.9266427"
     id="path1001" />
  <path
     style="fill:none;stroke:#000000;stroke-width:0.0386316;stroke-linecap:butt;stroke-linejoin:miter;stroke-miterlimit:4;stroke-dasharray:none;stroke-opacity:1"
     d="M 8.4533466,8.9266427 H 10.018642"
     id="path1003" />
  <path
     style="fill:none;stroke:#000000;stroke-width:0.0386316;stroke-linecap:butt;stroke-linejoin:miter;stroke-miterlimit:4;stroke-dasharray:none;stroke-opacity:1"
     d="m 11.583879,9.6893877 1.565354,-0.762745"
     id="path1005" />
  <path
     style="fill:none;stroke:#000000;stroke-width:0.0386316;stroke-linecap:butt;stroke-linejoin:miter;stroke-miterlimit:4;stroke-dasharray:none;stroke-opacity:1"
     d="M 14.71447,8.9266427 H 13.149233"
     id="path1007" />
  <path
     style="fill:none;stroke:#000000;stroke-width:0.0386316;stroke-linecap:butt;stroke-linejoin:miter;stroke-miterlimit:4;stroke-dasharray:none;stroke-opacity:1"
     d="m 14.71447,10.452134 7.8e-5,-1.5253003"
     id="path1009" />
  <path
     style="fill:none;stroke:#000000;stroke-width:0.0386316;stroke-linecap:butt;stroke-linejoin:miter;stroke-miterlimit:4;stroke-dasharray:none;stroke-opacity:1"
     d="M 13.931704,11.977625 14.71447,10.452134"
     id="path1011" />
  <path
     style="fill:none;stroke:#000000;stroke-width:0.0386316;stroke-linecap:butt;stroke-linejoin:miter;stroke-miterlimit:4;stroke-dasharray:none;stroke-opacity:1"
     d="M 14.714665,13.503116 13.931704,11.977625"
     id="path1013" />
  <path
     style="fill:none;stroke:#000000;stroke-width:0.0386316;stroke-linecap:butt;stroke-linejoin:miter;stroke-miterlimit:4;stroke-dasharray:none;stroke-opacity:1"
     d="m 14.71447,15.028415 1.95e-4,-1.525299"
     id="path1015" />
  <path
     style="fill:none;stroke:#000000;stroke-width:0.0386316;stroke-linecap:butt;stroke-linejoin:miter;stroke-miterlimit:4;stroke-dasharray:none;stroke-opacity:1"
     d="m 13.149214,15.028587 1.565256,1.9e-5"
     id="path1017" />
  <path
     style="fill:none;stroke:#000000;stroke-width:0.0386316;stroke-linecap:butt;stroke-linejoin:miter;stroke-miterlimit:4;stroke-dasharray:none;stroke-opacity:1"
     d="m 11.584309,14.265842 1.564905,0.762745"
     id="path1019" />
  <path
     style="fill:none;stroke:#000000;stroke-width:0.0386316;stroke-linecap:butt;stroke-linejoin:miter;stroke-miterlimit:4;stroke-dasharray:none;stroke-opacity:1"
     d="m 10.018662,15.028587 1.564904,-0.762745"
     id="path1021" />
  <path
     style="fill:none;stroke:#000000;stroke-width:0.0386316;stroke-linecap:butt;stroke-linejoin:miter;stroke-miterlimit:4;stroke-dasharray:none;stroke-opacity:1"
     d="M 8.4533661,15.028587 H 10.018662"
     id="path1023" />
  <path
     style="fill:#f68712;fill-opacity:1;stroke:#000000;stroke-width:0.0386316;stroke-linecap:butt;stroke-linejoin:miter;stroke-miterlimit:4;stroke-dasharray:none;stroke-opacity:1"
     d="M 9.2357791,11.97772 8.4532879,13.502924"
     id="path1025" />
  <path
     style="fill:none;stroke:#000000;stroke-width:0.0386316;stroke-linecap:butt;stroke-linejoin:miter;stroke-miterlimit:4;stroke-dasharray:none;stroke-opacity:1"
     d="M 8.4532879,15.028415 V 13.502924"
     id="path1027" />
  <path
     style="fill:none;stroke:#000000;stroke-width:0.0386316;stroke-linecap:butt;stroke-linejoin:miter;stroke-miterlimit:4;stroke-dasharray:none;stroke-opacity:1"
     d="m 8.4533466,8.9266427 -5.87e-5,1.5254913"
     id="path1029" />
  <path
     style="fill:none;stroke:#000000;stroke-width:0.0386316;stroke-linecap:butt;stroke-linejoin:miter;stroke-miterlimit:4;stroke-dasharray:none;stroke-opacity:1"
     d="M 9.2359356,11.977625 8.4532879,10.452134"
     id="path1031" />
  <path
     style="opacity:1;fill:#f68712;fill-opacity:1;stroke-width:0.00286869;stroke-miterlimit:4;stroke-dasharray:none"
     d="M 8.8883712,10.446011 C 8.6844565,9.6503367 8.5177451,8.9966697 8.5179014,8.9934187 c 2.739e-4,-0.0057 2.9613856,0.712666 2.9692736,0.720353 0.0021,0.0021 -0.498294,0.4931973 -1.112078,1.0913573 l -1.1159718,1.087562 z"
     id="path1033" />
  <path
     style="opacity:1;fill:#f68712;fill-opacity:1;stroke-width:0.00286869;stroke-miterlimit:4;stroke-dasharray:none"
     d="m 8.5184762,14.957111 c 1.599e-4,-0.0059 0.1668855,-0.659515 0.3705014,-1.452592 l 0.3702107,-1.44196 1.1179367,1.089539 1.117937,1.089539 -0.03793,0.0098 c -0.431688,0.111393 -2.938874,0.713467 -2.9386613,0.705687 z"
     id="path1035" />
  <path
     style="opacity:1;fill:#f68712;fill-opacity:1;stroke-width:0.00286869;stroke-miterlimit:4;stroke-dasharray:none"
     d="m 13.164611,14.606254 c -0.814066,-0.198532 -1.481874,-0.362678 -1.48402,-0.364769 -0.0021,-0.0021 0.498286,-0.493205 1.11207,-1.091364 l 1.115972,-1.087563 0.371745,1.44937 c 0.20446,0.797154 0.370082,1.450703 0.368048,1.452331 -0.002,0.0016 -0.669751,-0.159473 -1.483815,-0.358005 z"
     id="path1037" />
  <path
     style="opacity:1;fill:#f68712;fill-opacity:1;stroke-width:0;stroke-miterlimit:4;stroke-dasharray:none"
     d="m 14.374269,13.528299 c -0.164735,-0.642596 -0.301127,-1.176854 -0.303094,-1.187237 -0.002,-0.01039 0.133938,0.247729 0.302011,0.573586 l 0.305589,0.592465 -0.0025,0.594772 -0.0025,0.594773 z"
     id="path1039" />
  <path
     style="opacity:1;fill:#f68712;fill-opacity:1;stroke-width:0.00286869;stroke-miterlimit:4;stroke-dasharray:none"
     d="m 9.9856502,14.700465 c 0.6659288,-0.162919 1.2151378,-0.296111 1.2204658,-0.295982 0.0053,1.3e-4 -0.262739,0.133581 -0.595704,0.296558 l -0.605389,0.296321 -0.6150763,-3.43e-4 -0.6150759,-3.43e-4 z"
     id="path1041" />
  <path
     style="opacity:1;fill:#f68712;fill-opacity:1;stroke-width:0.00286869;stroke-miterlimit:4;stroke-dasharray:none"
     d="m 8.4907242,14.101606 -5.358e-4,-0.599434 0.2992111,-0.580556 c 0.164566,-0.319305 0.2993632,-0.574183 0.2995493,-0.566395 1.86e-4,0.0078 -0.1342182,0.538784 -0.298676,1.17999 l -0.2990143,1.16583 z"
     id="path1043" />
  <path
     style="opacity:1;fill:#f68712;fill-opacity:1;stroke-width:0;stroke-miterlimit:4;stroke-dasharray:none"
     d="m 8.786964,11.028935 -0.2978371,-0.580618 4.973e-4,-0.5970543 4.972e-4,-0.597054 0.3000141,1.1698523 c 0.1650077,0.643417 0.2988103,1.17337 0.297339,1.177671 -0.00147,0.0043 -0.1367016,-0.253456 -0.300512,-0.572797 z"
     id="path1045" />
  <path
     style="opacity:1;fill:#f68712;fill-opacity:1;stroke-width:0.00286869;stroke-miterlimit:4;stroke-dasharray:none"
     d="m 9.9808072,9.2542087 -1.2059364,-0.295634 0.6150759,-3.45e-4 0.6150763,-3.45e-4 0.605389,0.296322 c 0.332965,0.162977 0.598852,0.296167 0.590861,0.295978 -0.008,-1.9e-4 -0.557201,-0.13338 -1.2204658,-0.295978 z"
     id="path1047" />
  <path
     style="opacity:1;fill:#f68712;fill-opacity:1;stroke-width:0;stroke-miterlimit:4;stroke-dasharray:none"
     d="m 9.9856502,9.2510817 -1.1429757,-0.280071 0.583484,-0.0024 0.5834845,-0.0024 0.462629,0.22589 c 0.532269,0.259893 0.691342,0.340431 0.670883,0.339664 -0.008,-2.99e-4 -0.528868,-0.126576 -1.1575048,-0.280615 z"
     id="path1049" />
  <path
     style="opacity:1;fill:#f68712;fill-opacity:1;stroke-width:0;stroke-miterlimit:4;stroke-dasharray:none"
     d="m 8.4997318,14.064789 -9.144e-4,-0.570172 0.2831149,-0.546705 c 0.1557132,-0.300688 0.2844143,-0.542905 0.2860025,-0.538262 0.00159,0.0047 -0.1254001,0.507238 -0.2821963,1.116877 l -0.2850839,1.108434 z"
     id="path1053" />
  <path
     style="opacity:1;fill:#f68712;fill-opacity:1;stroke-width:0.00286869;stroke-miterlimit:4;stroke-dasharray:none"
     d="m 12.790633,10.803151 -1.117938,-1.0895393 0.03793,-0.0098 c 0.431688,-0.111396 2.938874,-0.713469 2.938661,-0.705688 -1.6e-4,0.0059 -0.166886,0.659515 -0.370501,1.4525923 l -0.370211,1.44196 z"
     id="path1057" />
  <path
     style="opacity:1;fill:#f68712;fill-opacity:1;stroke-width:0;stroke-miterlimit:4;stroke-dasharray:none"
     d="m 12.557346,9.2542087 0.605389,-0.296322 0.615075,3.41e-4 0.615076,3.41e-4 -1.210778,0.296217 c -0.665929,0.162919 -1.215138,0.29611 -1.220466,0.295981 -0.0053,-1.29e-4 0.262739,-0.13358 0.595704,-0.296558 z"
     id="path1059" />
  <path
     style="opacity:1;fill:#f68712;fill-opacity:1;stroke-width:0;stroke-miterlimit:4;stroke-dasharray:none"
     d="m 14.069219,11.623628 c -1.33e-4,-0.0052 0.136534,-0.540435 0.303705,-1.18943 l 0.303945,-1.1799893 3.52e-4,0.599434 3.52e-4,0.5994353 -0.304054,0.589994 c -0.167229,0.324498 -0.304162,0.585747 -0.304295,0.580556 z"
     id="path1061" />
  <path
     style="opacity:1;fill:#f68712;fill-opacity:1;stroke-width:0.00030181;stroke-miterlimit:4;stroke-dasharray:none"
     d="m 12.379901,10.436357 -0.739465,-0.7206613 0.799846,-0.194827 c 0.439914,-0.107154 0.800361,-0.194806 0.800991,-0.194782 6.43e-4,2.4e-5 0.0012,8.66e-4 0.0012,0.0019 0,0.0012 -0.03473,0.01025 -0.104328,0.02699 -0.363675,0.0875 -1.056772,0.25573 -1.165946,0.283003 -0.01808,0.0045 -0.05763,0.01434 -0.08789,0.02183 -0.06236,0.01544 -0.206743,0.05186 -0.210112,0.053 -0.0015,4.76e-4 0.254457,0.250906 0.738317,0.7224623 l 0.740539,0.721709 h -0.01682 -0.01682 z"
     id="path1063" />
  <path
     style="opacity:1;fill:#f68712;fill-opacity:1;stroke-width:0.00030181;stroke-miterlimit:4;stroke-dasharray:none"
     d="m 10.015653,11.156349 c 3.53e-4,-3.62e-4 0.198401,-0.193608 0.440113,-0.429422 0.525624,-0.512801 0.761336,-0.7435733 0.934009,-0.9144383 0.07989,-0.07906 0.09818,-0.09776 0.09683,-0.09902 -0.0037,-0.0035 -0.279078,-0.07145 -1.041925,-0.257233 -0.393728,-0.09588 -0.5178163,-0.126627 -0.5178163,-0.128279 0,-0.0013 0.00104,-0.0019 0.00268,-0.0015 0.00147,3.65e-4 0.3615733,0.08809 0.8002273,0.194956 l 0.797553,0.194295 -0.739465,0.7206623 -0.739465,0.720661 h -0.01669 c -0.0092,0 -0.0164,-3.04e-4 -0.01605,-6.47e-4 z"
     id="path1065" />
  <path
     style="opacity:1;fill:#f68712;fill-opacity:1;stroke-width:0.00030181;stroke-miterlimit:4;stroke-dasharray:none"
     d="m 12.444486,14.435316 c -0.437603,-0.106704 -0.79766,-0.194507 -0.800126,-0.195117 -0.0044,-0.001 0.01266,-0.01782 0.605328,-0.595417 l 0.609814,-0.594308 h 0.01744 0.01744 l -0.408764,0.398879 c -0.390965,0.38151 -0.699996,0.684708 -0.772326,0.757749 -0.03229,0.03261 -0.03361,0.03418 -0.03001,0.03547 0.01246,0.0045 0.483278,0.120366 1.327922,0.326793 0.152847,0.03736 0.231197,0.05714 0.231203,0.05837 0,0.001 -5.15e-4,0.0018 -0.0011,0.0017 -6.43e-4,-7.5e-5 -0.359186,-0.08744 -0.796788,-0.194144 z"
     id="path1067" />
  <path
     style="opacity:1;fill:#f68712;fill-opacity:1;stroke-width:0.00030181;stroke-miterlimit:4;stroke-dasharray:none"
     d="m 9.9268668,14.627561 c 0,-0.0012 0.00121,-0.0026 0.00268,-0.003 0.00147,-4.31e-4 0.086252,-0.02089 0.1884012,-0.04545 0.447135,-0.10754 1.008275,-0.244174 1.221358,-0.297394 0.04874,-0.01217 0.148759,-0.03754 0.153455,-0.03891 0.0023,-6.48e-4 -0.12457,-0.125062 -0.608386,-0.596576 l -0.611274,-0.59572 h 0.01758 0.01758 l 0.609743,0.594239 c 0.485106,0.472771 0.609153,0.594418 0.606857,0.595114 -0.0016,4.75e-4 -0.36058,0.08808 -0.797763,0.194662 -0.437182,0.106583 -0.7960803,0.194129 -0.7975515,0.194547 -0.00171,4.75e-4 -0.00268,-5.1e-5 -0.00268,-0.0015 z"
     id="path1069" />
  <path
     style="opacity:1;fill:#f68712;fill-opacity:1;stroke-width:0;stroke-miterlimit:4;stroke-dasharray:none"
     d="m 9.9673749,14.997608 0.041273,-8.21e-4 0.08637,-0.04264 c 0.0475,-0.02345 0.184732,-0.09074 0.304957,-0.149533 0.473042,-0.231322 0.772749,-0.379687 0.80252,-0.397276 0.0036,-0.0021 0.0039,-0.0027 0.0016,-0.0027 -0.0055,-1.1e-5 -0.283408,0.06724 -1.014799,0.245514 -0.2056286,0.05012 -0.2625172,0.0635 -0.2621536,0.06167 3.521e-4,-0.0018 0.1512876,-0.0391 0.6745776,-0.16664 0.370763,-0.09036 0.674802,-0.164294 0.675643,-0.164298 8.57e-4,-5e-6 -0.283542,0.139079 -0.631962,0.309075 l -0.633491,0.309083 -0.042919,-3.24e-4 -0.042919,-3.24e-4 z"
     id="path1071" />
  <path
     style="opacity:1;fill:#f68712;fill-opacity:1;stroke-width:0;stroke-miterlimit:4;stroke-dasharray:none"
     d="m 8.4843385,14.127554 c -1.111e-4,-0.607261 -5.78e-5,-0.619084 0.00282,-0.6242 0.00289,-0.0051 0.00292,0.0027 0.00299,0.596565 3.72e-5,0.348928 6.301e-4,0.601185 0.00142,0.600364 9.885e-4,-0.001 0.3396843,-1.321115 0.4288341,-1.671407 0.00692,-0.0272 0.01011,-0.03736 0.011822,-0.03768 0.0018,-3.43e-4 -0.050611,0.206194 -0.2220683,0.875219 -0.1234269,0.481611 -0.2247022,0.876663 -0.2250563,0.877892 -3.541e-4,0.0012 -6.944e-4,-0.27631 -7.587e-4,-0.616752 z"
     id="path1073" />
  <path
     style="opacity:1;fill:#f68712;fill-opacity:1;stroke-width:0;stroke-miterlimit:4;stroke-dasharray:none"
     d="m 8.6829009,13.122652 c 1.577e-4,-0.0026 0.4338706,-0.846114 0.4339096,-0.843861 2.12e-5,0.0012 -0.041041,0.162266 -0.09125,0.357859 -0.070111,0.273125 -0.091742,0.35535 -0.093243,0.354443 -0.00151,-8.66e-4 0.00751,-0.03845 0.03944,-0.164159 0.072995,-0.287403 0.1176683,-0.466123 0.1176683,-0.47074 0,-0.0058 -0.00762,0.007 -0.041611,0.07009 -0.057939,0.107475 -0.1262145,0.237999 -0.2583268,0.493847 -0.057117,0.110613 -0.1044845,0.201752 -0.1052606,0.20253 -8.897e-4,8.66e-4 -0.00138,8.66e-4 -0.00133,0 z"
     id="path1075" />
  <path
     style="opacity:1;fill:#f68712;fill-opacity:1;stroke-width:0.00030181;stroke-miterlimit:4;stroke-dasharray:none"
     d="M 9.0943422,11.265571 C 9.0016241,10.904125 8.9261305,10.60804 8.9265788,10.607603 c 4.458e-4,-4.31e-4 0.00124,-3.81e-4 0.00176,1.31e-4 5.231e-4,5.18e-4 0.07483,0.289052 0.1651293,0.641207 0.090299,0.352156 0.1645383,0.641257 0.1649762,0.642447 5.229e-4,0.0014 0.129681,-0.123441 0.3787295,-0.366156 l 0.3779342,-0.368321 0.01638,4.2e-4 0.01638,4.2e-4 -0.3924788,0.382489 -0.3924783,0.38249 z"
     id="path1077" />
  <path
     style="opacity:1;fill:#f68712;fill-opacity:1;stroke-width:0;stroke-miterlimit:4;stroke-dasharray:none"
     d="M 8.8414094,11.142868 C 8.6902876,10.848309 8.5673,10.607306 8.5681036,10.607306 c 8.059e-4,0 0.074059,0.141283 0.1627913,0.313962 0.2269243,0.441614 0.3473915,0.672103 0.3555968,0.680363 0.00233,0.0023 0.00172,-0.0013 -0.0048,-0.02884 -0.019351,-0.08163 -0.1470489,-0.587566 -0.2197161,-0.870515 -0.021839,-0.08503 -0.024093,-0.09497 -0.021548,-0.09497 0.0017,0 0.00316,0.0013 0.00362,0.0034 4.33e-4,0.0018 0.062034,0.242275 0.1368912,0.534293 0.074858,0.292018 0.1359093,0.531512 0.1356706,0.53221 -2.388e-4,6.91e-4 -0.1240792,-0.239734 -0.2752008,-0.534293 z"
     id="path1079" />
  <path
     style="opacity:1;fill:#f68712;fill-opacity:1;stroke-width:0;stroke-miterlimit:4;stroke-dasharray:none"
     d="m 8.4842361,9.6765917 1.39e-4,-0.467405 0.1199081,0.466859 c 0.065949,0.256772 0.1195708,0.4671883 0.1191585,0.4675893 -4.129e-4,4.01e-4 -0.00164,4.01e-4 -0.00273,-1.9e-5 -0.00122,-4.76e-4 -0.045701,-0.1712783 -0.1158544,-0.4448713 -0.062633,-0.244266 -0.1143953,-0.44412 -0.1150278,-0.44412 -6.301e-4,0 -0.00115,0.200109 -0.00115,0.444686 0,0.3942843 -2.602e-4,0.4446873 -0.00229,0.4446873 -0.00203,0 -0.00227,-0.05287 -0.00215,-0.4674063 z"
     id="path1081" />
  <path
     style="opacity:1;fill:#f68712;fill-opacity:1;stroke-width:0;stroke-miterlimit:4;stroke-dasharray:none"
     d="M 8.8052341,10.138411 C 8.7955441,10.102741 8.5086156,8.9814467 8.509064,8.9810097 c 3.366e-4,-3.28e-4 0.3190176,0.07696 0.7081797,0.171744 0.5199358,0.126639 0.7082925,0.173071 0.7103019,0.175094 0.00151,0.0015 0.00225,0.0028 0.00166,0.0028 -5.874e-4,0 -0.091247,-0.02183 -0.2014538,-0.04852 -0.6433483,-0.155791 -1.1047214,-0.266276 -1.2065891,-0.28894 -0.00198,-4.31e-4 -0.00344,-6e-5 -0.00344,8.66e-4 0,0.0022 0.022693,0.09244 0.064214,0.255381 0.018582,0.07293 0.041963,0.164765 0.051958,0.204094 0.00999,0.03933 0.053637,0.2102 0.096982,0.379715 0.043346,0.1695133 0.078809,0.3087843 0.078809,0.3094923 0,0.0036 -0.00313,5.61e-4 -0.00446,-0.0043 z"
     id="path1083" />
  <path
     style="opacity:1;fill:#f68712;fill-opacity:1;stroke-width:0.000603617;stroke-miterlimit:4;stroke-dasharray:none"
     d="M 8.8183616,11.1164 8.4751902,10.447502 V 9.8084067 9.1693107 h 0.00905 c 0.00788,0 0.00945,0.0014 0.012088,0.01117 0.019448,0.0716 0.6667167,2.6003803 0.6660761,2.6022523 -4.801e-4,0.0014 -0.1553026,-0.298444 -0.344047,-0.666337 z m 0.1722843,0.06094 C 8.8344917,10.565884 8.8465307,10.611929 8.8412507,10.605956 8.8357107,10.599756 8.7192606,10.145764 8.7226533,10.143655 8.7240233,10.142791 8.6709963,9.9316107 8.6048267,9.6743327 l -0.1203096,-0.467778 0.00115,0.619864 0.00115,0.6198623 0.041298,0.0818 c 0.022714,0.04499 0.058147,0.115992 0.078741,0.157779 0.062867,0.127565 0.5083322,0.993629 0.5094292,0.990422 5.658e-4,-0.0016 -0.055968,-0.226179 -0.1256275,-0.498947 z"
     id="path1089" />
  <path
     style="opacity:1;fill:#f68712;fill-opacity:1;stroke-width:0.000603617;stroke-miterlimit:4;stroke-dasharray:none"
     d="m 8.8921029,10.553225 -0.3550027,-1.3839143 0.00955,7.1e-5 0.00955,7e-5 0.1238174,0.484585 c 0.068099,0.26652 0.1253235,0.4860713 0.1271644,0.4878883 0.00379,0.0037 0.1173162,0.446542 0.1192182,0.464983 6.773e-4,0.0066 0.076387,0.305344 0.1682474,0.663977 l 0.167018,0.652058 -0.00728,0.0071 -0.00728,0.0071 z"
     id="path1091" />
  <path
     style="opacity:1;fill:#f68712;fill-opacity:1;stroke-width:0.000603617;stroke-miterlimit:4;stroke-dasharray:none"
     d="m 8.4756373,14.179297 -1.086e-4,-0.67336 0.3435985,-0.668893 c 0.1889791,-0.36789 0.3436331,-0.66688 0.3436754,-0.664423 4.23e-5,0.0024 -0.1545281,0.606473 -0.3434898,1.342254 l -0.3435667,1.337783 z m 0.2208335,-0.254989 c 0.1149823,-0.449692 0.2179834,-0.852481 0.2288912,-0.895088 0.010909,-0.0426 0.058568,-0.227535 0.1059117,-0.410953 0.047343,-0.183418 0.085599,-0.33489 0.085012,-0.336606 -0.0012,-0.0035 -0.3408542,0.652934 -0.3975922,0.768416 -0.052836,0.107539 -0.2287142,0.449721 -0.2317553,0.450893 -0.00142,5.62e-4 -0.00258,0.280654 -0.00258,0.622462 0,0.341808 6.859e-4,0.6208 0.00152,0.619982 8.403e-4,-8.2e-4 0.095601,-0.369416 0.2105838,-0.819106 z"
     id="path1095" />
  <path
     style="opacity:1;fill:#f68712;fill-opacity:1;stroke-width:0.000603617;stroke-miterlimit:4;stroke-dasharray:none"
     d="m 10.005328,14.672219 c 0.758343,-0.184976 1.380181,-0.336286 1.381862,-0.336244 0.0017,4.1e-5 -0.307174,0.151432 -0.686345,0.336425 l -0.689403,0.336351 -0.6924597,-1.06e-4 -0.6924598,-1.06e-4 z m 0.637101,0.02066 c 0.345723,-0.168995 0.629962,-0.308585 0.631644,-0.3102 0.002,-0.0019 9.89e-4,-0.0023 -0.003,-0.0012 -0.0034,9.53e-4 -0.158135,0.03854 -0.343937,0.08353 -0.508184,0.123025 -0.9909165,0.242152 -1.0012387,0.247082 -0.00504,0.0024 -0.266129,0.0672 -0.5801879,0.143982 l -0.5710164,0.139601 0.580188,0.0015 c 0.3191033,8.2e-4 0.5979249,0.0018 0.6196033,0.0023 l 0.039415,7.34e-4 z"
     id="path1097" />
  <path
     style="opacity:1;fill:#f68712;fill-opacity:1;stroke-width:0.000603617;stroke-miterlimit:4;stroke-dasharray:none"
     d="m 13.152765,14.627024 -1.528011,-0.372575 0.0082,-0.0083 c 0.0061,-0.0062 0.0094,-0.0076 0.01316,-0.0055 0.0079,0.0044 1.584524,0.387822 1.59473,0.387817 0.005,-2e-6 0.121983,0.02742 0.259863,0.06094 0.306605,0.07454 1.001809,0.242311 1.084603,0.261748 0.03324,0.0078 0.06126,0.01339 0.06225,0.01242 0.0022,-0.0022 0.0035,0.0034 -0.04518,-0.19129 -0.06395,-0.255613 -0.140409,-0.555507 -0.365205,-1.432373 -0.116683,-0.455147 -0.212152,-0.828886 -0.212152,-0.830529 0,-0.0016 0.0046,-0.0029 0.01032,-0.0029 h 0.01032 l 0.318449,1.241696 c 0.175147,0.682932 0.319177,1.244042 0.320067,1.24691 9.06e-4,0.0029 4.71e-4,0.0051 -9.06e-4,0.0049 -0.0014,-1.5e-4 -0.690103,-0.167931 -1.530509,-0.372848 z"
     id="path1099" />
  <path
     style="opacity:1;fill:#f68712;fill-opacity:1;stroke-width:0.000603617;stroke-miterlimit:4;stroke-dasharray:none"
     d="m 14.346935,13.511066 c -0.189819,-0.739515 -0.34455,-1.345132 -0.343849,-1.345816 6.86e-4,-6.9e-4 0.156428,0.301362 0.346059,0.671211 l 0.344784,0.672455 -9.06e-4,0.67336 -9.06e-4,0.673362 z m 0.331366,0.352407 9.06e-4,-0.357536 -0.09789,-0.190687 c -0.13086,-0.254908 -0.38441,-0.743968 -0.439899,-0.848502 -0.05467,-0.102994 -0.06865,-0.128043 -0.07044,-0.12629 -0.0016,0.0016 0.586841,2.305487 0.59907,2.34535 0.0043,0.01403 0.0068,-0.240394 0.0083,-0.822335 z"
     id="path1101" />
  <path
     style="opacity:1;fill:#f68712;fill-opacity:1;stroke-width:0.000603617;stroke-miterlimit:4;stroke-dasharray:none"
     d="m 13.391138,12.5347 c 0.290008,-0.282637 0.528163,-0.512913 0.529233,-0.511724 0.0011,0.0011 0.02901,0.108082 0.06211,0.23754 0.03309,0.129458 0.06089,0.237725 0.06177,0.240593 0.0013,0.0042 -3.14e-4,0.0052 -0.0091,0.0052 -0.0098,0 -0.01104,-9.53e-4 -0.01395,-0.01117 -0.0017,-0.0061 -0.0275,-0.105696 -0.05722,-0.221225 -0.02972,-0.11553 -0.05455,-0.210667 -0.05518,-0.211417 -6.44e-4,-7.35e-4 -0.229113,0.220811 -0.507749,0.492358 l -0.506614,0.493715 h -0.01528 -0.01528 z"
     id="path1103" />
  <path
     style="opacity:1;fill:#f68712;fill-opacity:1;stroke-width:0.000603617;stroke-miterlimit:4;stroke-dasharray:none"
     d="m 14.003089,11.78678 c 5.1e-5,-0.0033 0.137206,-0.539583 0.304787,-1.19179 l 0.304695,-1.1858313 0.01147,-8.66e-4 c 0.0063,-5.18e-4 0.01146,-4.21e-4 0.01146,1.92e-4 0,6.05e-4 -0.05855,0.22829 -0.130124,0.505946 -0.147092,0.5706493 -0.418487,1.6294623 -0.430103,1.6779963 -0.0042,0.01762 -0.0068,0.03203 -0.0057,0.03203 0.0041,0 0.236708,-0.445869 0.483769,-0.927354 l 0.124978,-0.243565 V 9.9306337 9.4077287 h 0.0077 0.0077 l -1.69e-4,0.520663 -1.7e-4,0.5206643 -0.345127,0.671871 c -0.189819,0.369529 -0.345084,0.669189 -0.345033,0.665912 z"
     id="path1105" />
  <path
     style="opacity:1;fill:#f68712;fill-opacity:1;stroke-width:0.000603617;stroke-miterlimit:4;stroke-dasharray:none"
     d="m 13.519541,11.54537 -0.398883,-0.388749 h 0.01528 0.01528 l 0.37821,0.368583 c 0.208016,0.202721 0.378753,0.367971 0.379419,0.367221 6.85e-4,-7.35e-4 0.143179,-0.555099 0.3167,-1.231887 0.173519,-0.6767873 0.31685,-1.2355503 0.318513,-1.2416953 0.0027,-0.01019 0.004,-0.01117 0.01361,-0.01117 0.0059,0 0.01059,6.91e-4 0.01059,0.0015 0,0.0045 -0.64625,2.5209913 -0.647872,2.5227953 -0.0011,0.0011 -0.181442,-0.172775 -0.400828,-0.386587 z"
     id="path1107" />
  <path
     style="opacity:1;fill:#f68712;fill-opacity:1;stroke-width:0.000603617;stroke-miterlimit:4;stroke-dasharray:none"
     d="m 14.61419,9.4056147 c 4.9e-5,-0.0013 0.01781,-0.0708 0.03947,-0.154367 l 0.03938,-0.151954 2.74e-4,0.154187 2.74e-4,0.154188 h -0.0077 -0.0077 v -0.07648 c 0,-0.04206 -8.24e-4,-0.07566 -0.0018,-0.07467 -9.89e-4,9.52e-4 -0.01038,0.03507 -0.02081,0.07573 l -0.01896,0.07392 -0.01129,8.66e-4 c -0.0062,5.18e-4 -0.01125,-1.62e-4 -0.0112,-0.0015 z"
     id="path1109" />
  <path
     style="opacity:1;fill:#f68712;fill-opacity:1;stroke-width:0.000603617;stroke-miterlimit:4;stroke-dasharray:none"
     d="m 11.633647,9.7074537 -0.0067,-0.007 1.52875,-0.372469 c 0.840812,-0.204858 1.528708,-0.371631 1.528658,-0.370606 -4.9e-5,0.001 -0.02592,0.10242 -0.0575,0.225323 l -0.05741,0.223461 -0.01156,9.52e-4 c -0.01,8.2e-4 -0.01133,1.94e-4 -0.0099,-0.0045 0.0039,-0.01282 0.09855,-0.388915 0.100242,-0.398701 8.24e-4,-0.0049 -4.29e-4,-0.0058 -0.0066,-0.005 -0.0237,0.0029 -0.564807,0.130285 -1.103655,0.259735 -0.29994,0.07206 -0.29655,0.07127 -0.29655,0.06858 0,-0.0012 -0.35735,0.08473 -0.794112,0.191058 -0.436762,0.106327 -0.796994,0.193954 -0.800515,0.194726 -0.0041,8.67e-4 -0.0088,-10e-4 -0.01313,-0.0055 z"
     id="path1111" />
  <path
     style="opacity:1;fill:#f68712;fill-opacity:1;stroke-width:0.000603617;stroke-miterlimit:4;stroke-dasharray:none"
     d="m 12.467933,9.2825317 0.689403,-0.336351 0.693988,1.06e-4 0.693988,1.06e-4 -1.378805,0.33632 c -0.758342,0.184975 -1.380868,0.336286 -1.383391,0.336244 -0.0025,-4.1e-5 0.305646,-0.151433 0.684817,-0.336425 z m 0.708817,-0.02533 c 0.661909,-0.161411 1.206224,-0.294726 1.209586,-0.296255 0.0038,-0.0017 -0.226248,-0.0029 -0.610149,-0.0029 l -0.616263,-2.03e-4 -0.44459,0.217785 c -0.403499,0.197655 -0.69536,0.342062 -0.739613,0.365948 -0.01282,0.0069 -0.01511,0.0091 -0.0096,0.0091 0.0039,3.1e-5 0.548748,-0.132009 1.210658,-0.293421 z"
     id="path1113" />
  <path
     style="opacity:1;fill:#f68712;fill-opacity:1;stroke-width:0.000603617;stroke-miterlimit:4;stroke-dasharray:none"
     d="m 10,9.2825317 -1.3772766,-0.336138 0.6939885,-1.07e-4 0.6939881,-1.06e-4 0.689403,0.336351 c 0.379171,0.184992 0.686651,0.336303 0.683288,0.336244 C 11.380031,9.6187177 10.757502,9.4674067 10,9.2825317 Z m 1.199805,0.265392 c -0.0093,-0.00887 -0.25193,-0.129744 -0.76084,-0.379088 l -0.430815,-0.211082 -0.6178113,7.35e-4 -0.6178116,7.34e-4 0.7520756,0.184312 c 0.4136415,0.10137 0.9384893,0.229584 1.1663283,0.284917 0.22784,0.05533 0.433513,0.105337 0.457054,0.11112 0.04513,0.01109 0.05668,0.01294 0.05182,0.0083 z"
     id="path1115" />
  <path
     style="opacity:1;fill:#f68712;fill-opacity:1;stroke-width:0.000603617;stroke-miterlimit:4;stroke-dasharray:none"
     d="M 8.994418,10.85346 C 8.989358,10.83494 8.6943601,9.6833347 8.6623388,9.5571157 c -0.020544,-0.08098 -0.030638,-0.115982 -0.032649,-0.11322 -0.00202,0.0028 -0.00235,0.0017 -0.00108,-0.0035 0.00243,-0.0099 -0.056665,-0.242424 -0.060342,-0.237454 -0.00164,0.0022 -0.00203,8.66e-4 -0.00103,-0.0035 0.00231,-0.01018 -0.013489,-0.07326 -0.017116,-0.06831 -0.00191,0.0026 -0.00224,0.0014 -0.00102,-0.0036 0.0025,-0.01027 -0.020154,-0.100389 -0.023436,-0.09321 -0.0016,0.0035 -0.00194,0.0021 -9.968e-4,-0.004 7.845e-4,-0.0051 2.427e-4,-0.01316 -0.00121,-0.01788 -0.002,-0.0065 -0.00277,-0.0072 -0.00317,-0.0026 -2.954e-4,0.0033 -0.00245,-7.34e-4 -0.00479,-0.0089 -0.00234,-0.0082 -0.00394,-0.01563 -0.00355,-0.01653 3.855e-4,-8.66e-4 0.1773761,0.04126 0.3933109,0.09368 0.2159347,0.05242 0.3912649,0.09575 0.3896224,0.09628 -0.00164,5.18e-4 -0.062066,-0.01322 -0.1342738,-0.03056 -0.3536335,-0.0849 -0.4919379,-0.117597 -0.4942934,-0.116831 -0.00142,4.74e-4 0.026711,0.0079 0.06251,0.01645 0.8473737,0.20325 1.9432449,0.468921 2.4234239,0.587509 0.146957,0.03629 0.269354,0.06518 0.271991,0.0642 0.0049,-0.0018 0.09824,0.01933 0.09824,0.02226 0,8.64e-4 -0.264575,0.259435 -0.587944,0.5745773 l -0.587943,0.572988 -0.01419,-9.53e-4 -0.01419,-9.53e-4 0.373425,-0.364985 c 0.673882,-0.6586513 0.794205,-0.7774363 0.79406,-0.7839153 -5.7e-5,-0.0025 -0.0014,-0.0018 -0.0034,0.0018 -0.0046,0.0082 -0.323009,0.3215223 -0.922681,0.9079953 l -0.246014,0.240671 H 9.6555227 8.9974686 Z m 2.485021,-1.1431223 c -0.0022,-0.0022 -0.05237,-0.01401 -0.05373,-0.01269 -7.29e-4,6.91e-4 0.0094,0.004 0.02252,0.0073 0.02377,0.0061 0.03363,0.0077 0.03122,0.0054 z M 8.6288378,9.0171647 c -0.018496,-0.0048 -0.035693,-0.0085 -0.038215,-0.0084 -0.00638,2.86e-4 0.058187,0.01695 0.06573,0.01697 0.00336,7e-6 -0.00902,-0.0038 -0.027515,-0.0086 z m -0.058087,-0.01335 c -0.00841,-0.0023 -0.023885,-0.006 -0.034394,-0.0084 -0.018923,-0.0043 -0.019107,-0.0042 -0.019061,0.0021 3.7e-5,0.0051 6.387e-4,0.0055 0.00287,0.0021 0.00244,-0.0037 0.00626,-0.0035 0.028233,0.0019 0.027896,0.0068 0.046907,0.0088 0.022359,0.0023 z"
     id="path1117" />
  <path
     style="opacity:1;fill:#f68712;fill-opacity:1;stroke-width:0.000603617;stroke-miterlimit:4;stroke-dasharray:none"
     d="m 10.730675,9.5205027 c -0.43466,-0.106247 -0.7944179,-0.193787 -0.7994623,-0.194533 -0.00504,-7.45e-4 -0.099283,-0.02365 -0.2094195,-0.0509 -0.3114352,-0.07706 -1.2023924,-0.293419 -1.2083653,-0.293443 -0.00294,-1.2e-5 -0.00531,3.13e-4 -0.00526,7.34e-4 4.59e-5,4.1e-4 0.010889,0.04265 0.024094,0.09385 l 0.024011,0.09311 h -0.00962 -0.00962 l -0.026787,-0.105027 c -0.014733,-0.05776 -0.026751,-0.105865 -0.026707,-0.106889 4.4e-5,-10e-4 0.6880175,0.165748 1.5288301,0.370606 l 1.528749,0.372469 -0.0068,0.007 c -0.0037,0.0039 -0.0083,0.0068 -0.01008,0.0066 -0.0018,-2.4e-4 -0.358919,-0.08737 -0.793579,-0.193615 z"
     id="path1119" />
  <path
     style="opacity:1;fill:#f68712;fill-opacity:1;stroke-width:0.000603617;stroke-miterlimit:4;stroke-dasharray:none"
     d="m 8.4752599,9.1357927 2.777e-4,-0.03352 0.00722,0.02681 c 0.00397,0.01475 0.008,0.02983 0.00895,0.03352 0.00152,0.0058 5.53e-4,0.0067 -0.0075,0.0067 h -0.00923 z"
     id="path1121" />
</svg>
