<?xml version="1.0" encoding="UTF-8" standalone="no"?>
<svg
   xmlns:dc="http://purl.org/dc/elements/1.1/"
   xmlns:cc="http://creativecommons.org/ns#"
   xmlns:rdf="http://www.w3.org/1999/02/22-rdf-syntax-ns#"
   xmlns:svg="http://www.w3.org/2000/svg"
   xmlns="http://www.w3.org/2000/svg"
   xmlns:sodipodi="http://sodipodi.sourceforge.net/DTD/sodipodi-0.dtd"
   xmlns:inkscape="http://www.inkscape.org/namespaces/inkscape"
   width="16"
   height="16"
   viewBox="0 0 16 16"
   version="1.1"
   id="svg1423"
   sodipodi:docname="e_logo_flat.svg"
   inkscape:version="1.0.1 (3bc2e813f5, 2020-09-07)">
  <metadata
     id="metadata1429">
    <rdf:RDF>
      <cc:Work
         rdf:about="">
        <dc:format>image/svg+xml</dc:format>
        <dc:type
           rdf:resource="http://purl.org/dc/dcmitype/StillImage" />
        <dc:title></dc:title>
      </cc:Work>
    </rdf:RDF>
  </metadata>
  <defs
     id="defs1427" />
  <sodipodi:namedview
     pagecolor="#ffffff"
     bordercolor="#666666"
     borderopacity="1"
     objecttolerance="10"
     gridtolerance="10"
     guidetolerance="10"
     inkscape:pageopacity="0"
     inkscape:pageshadow="2"
     inkscape:window-width="853"
     inkscape:window-height="960"
     id="namedview1425"
     showgrid="false"
     inkscape:zoom="25.25"
     inkscape:cx="8"
     inkscape:cy="8"
     inkscape:window-x="920"
     inkscape:window-y="0"
     inkscape:window-maximized="0"
     inkscape:current-layer="svg1423" />
  <g
     fill="none"
     fill-rule="evenodd"
     id="g1421">
    <path
       fill="#40B6E0"
       fill-opacity=".6"
       d="M15,8 C15,11.866 11.866,15 8,15 C4.134,15 1,11.866 1,8 C1,4.134 4.134,1 8,1 C11.866,1 15,4.134 15,8"
       id="path1417" />
    <polygon
       fill="#231F20"
       fill-opacity=".7"
       points="4 6 0 6 0 0 4 0 4 1 1 1 1 2 3.5 2 3.5 3 1 3 1 5 4 5"
       transform="translate(6 5)"
       id="polygon1419" />
  </g>
  <g
     id="g1775"
     transform="matrix(1.0480161,0,0,1.126145,4.6245463,-19.47463)">
    <path
       fill="#fbc707"
       d="m 8.334853,24.397063 -1.5652954,0.762745 1.8237649,-0.15274 1.3068253,-0.610005 z m -4.6958864,0 1.3473281,0.570343 1.7832629,0.192402 -1.5652955,-0.762745 z"
       id="path120"
       style="stroke-width:0.193158" />
    <path
       fill="#f68712"
       d="m 6.7695379,29.736262 h 3.914e-4 l -3.914e-4,-1.91e-4 z m 1.5652958,0.762745 h 1.5652951 l -1.42931,-0.703251 -1.7008895,-0.05949 z"
       id="path122"
       style="stroke-width:0.193158;stroke-miterlimit:4;stroke-dasharray:none" />
    <path
       fill="#f25c19"
       d="m 6.769186,29.736262 h 3.914e-4 v -1.91e-4 z m -1.7147814,0 -1.4154185,0.762745 H 5.2042817 L 6.769186,29.736262 Z"
       id="path124"
       style="stroke-width:0.193158" />
    <polygon
       fill="#fff200"
       points="4,24.417 4,16 0,23.999 0,31.999 "
       id="polygon126"
       transform="matrix(0.19566195,0,0,0.19068633,3.6389079,24.397063)" />
    <polygon
       fill="#fff200"
       points="4,16 3.339,7.652 0,0 0,8 "
       id="polygon128"
       transform="matrix(0.19566195,0,0,0.19068633,3.6389079,24.397063)" />
    <polygon
       fill="#f1471d"
       points="27.999,16 32,8 32,0 28.869,7.234 "
       id="polygon130"
       transform="matrix(0.19566195,0,0,0.19068633,3.6389079,24.397063)" />
    <polygon
       fill="#f1471d"
       points="32.001,24 27.999,16 28.731,25.391 32.001,32 "
       id="polygon132"
       transform="matrix(0.19566195,0,0,0.19068633,3.6389079,24.397063)" />
    <polygon
       fill="#fab20b"
       points="13.426,14.19 16,4 0,0 0,0.001 4,16 "
       id="polygon134"
       transform="matrix(0.19566195,0,0,0.19068633,3.6389079,24.397063)" />
    <path
       fill="#f47216"
       d="m 9.9001675,24.397063 v 1.91e-4 z m -3.1305901,0.762745 0.2449686,1.916589 2.102778,0.371648 0.7828435,-3.050791 z"
       id="path136"
       style="stroke-width:0.193158" />
    <polygon
       fill="#f25c19"
       points="32,31.999 27.999,16.001 17.808,17.392 16,28 32,32 "
       id="polygon138"
       transform="matrix(0.19566195,0,0,0.19068633,3.6389079,24.397063)" />
    <path
       fill="#f89c0e"
       d="M 3.638947,30.49874 6.7695379,29.736186 6.3067976,27.859069 4.4213991,27.44814 Z m 0,0 v 1.91e-4 z"
       id="path140"
       style="stroke-width:0.193158" />
    <polyline
       fill="#f68712"
       points="16 4 4 16 16 28 27.999 16 16 4"
       id="polyline142"
       transform="matrix(0.19566195,0,0,0.19068633,3.6389079,24.397063)" />
    <path
       style="opacity:1;fill:none;stroke:#000000;stroke-width:0.0386316;stroke-linecap:butt;stroke-linejoin:miter;stroke-miterlimit:4;stroke-dasharray:none;stroke-opacity:1"
       d="M 6.7694989,25.159808 4.4215556,27.448045"
       id="path154" />
    <path
       style="fill:none;stroke:#000000;stroke-width:0.0386316;stroke-linecap:butt;stroke-linejoin:miter;stroke-miterlimit:4;stroke-dasharray:none;stroke-opacity:1"
       d="m 6.7695774,25.159808 2.3476684,2.288237"
       id="path979" />
    <path
       style="fill:none;stroke:#000000;stroke-width:0.0386316;stroke-linecap:butt;stroke-linejoin:miter;stroke-miterlimit:4;stroke-dasharray:none;stroke-opacity:1"
       d="M 9.1172458,27.448235 6.7694989,29.736281"
       id="path981" />
    <path
       style="fill:none;stroke:#000000;stroke-width:0.0386316;stroke-linecap:butt;stroke-linejoin:miter;stroke-miterlimit:4;stroke-dasharray:none;stroke-opacity:1"
       d="M 4.4213991,27.44814 6.769186,29.736262"
       id="path983" />
    <path
       style="fill:none;stroke:#000000;stroke-width:0.0386316;stroke-linecap:butt;stroke-linejoin:miter;stroke-miterlimit:4;stroke-dasharray:none;stroke-opacity:1"
       d="M 6.7694989,25.159808 9.9001675,24.397254"
       id="path985" />
    <path
       style="fill:none;stroke:#000000;stroke-width:0.0386316;stroke-linecap:butt;stroke-linejoin:miter;stroke-miterlimit:4;stroke-dasharray:none;stroke-opacity:1"
       d="M 9.117324,27.448045 9.9001675,24.397254"
       id="path987" />
    <path
       style="fill:none;stroke:#000000;stroke-width:0.0386316;stroke-linecap:butt;stroke-linejoin:miter;stroke-miterlimit:4;stroke-dasharray:none;stroke-opacity:1"
       d="M 6.7694989,25.159808 3.6389079,24.397063"
       id="path989" />
    <path
       style="fill:none;stroke:#000000;stroke-width:0.0386316;stroke-linecap:butt;stroke-linejoin:miter;stroke-miterlimit:4;stroke-dasharray:none;stroke-opacity:1"
       d="M 4.4213991,27.44814 3.6389079,24.397254"
       id="path991" />
    <path
       style="fill:none;stroke:#000000;stroke-width:0.0386316;stroke-linecap:butt;stroke-linejoin:miter;stroke-miterlimit:4;stroke-dasharray:none;stroke-opacity:1"
       d="M 3.6389861,30.499007 6.769186,29.736262"
       id="path993" />
    <path
       style="fill:none;stroke:#000000;stroke-width:0.0386316;stroke-linecap:butt;stroke-linejoin:miter;stroke-miterlimit:4;stroke-dasharray:none;stroke-opacity:1"
       d="m 4.4213991,27.44814 -0.782413,3.050867"
       id="path995" />
    <path
       style="fill:none;stroke:#000000;stroke-width:0.0386316;stroke-linecap:butt;stroke-linejoin:miter;stroke-miterlimit:4;stroke-dasharray:none;stroke-opacity:1"
       d="m 9.1172458,27.448235 0.7830395,3.050791"
       id="path997" />
    <path
       style="fill:none;stroke:#000000;stroke-width:0.0386316;stroke-linecap:butt;stroke-linejoin:miter;stroke-miterlimit:4;stroke-dasharray:none;stroke-opacity:1"
       d="m 6.7699293,29.736262 3.1301608,0.762573"
       id="path999" />
    <path
       style="fill:none;stroke:#000000;stroke-width:0.0386316;stroke-linecap:butt;stroke-linejoin:miter;stroke-miterlimit:4;stroke-dasharray:none;stroke-opacity:1"
       d="M 6.7694989,25.159808 5.2042621,24.397063"
       id="path1001" />
    <path
       style="fill:none;stroke:#000000;stroke-width:0.0386316;stroke-linecap:butt;stroke-linejoin:miter;stroke-miterlimit:4;stroke-dasharray:none;stroke-opacity:1"
       d="M 3.6389666,24.397063 H 5.2042621"
       id="path1003" />
    <path
       style="fill:none;stroke:#000000;stroke-width:0.0386316;stroke-linecap:butt;stroke-linejoin:miter;stroke-miterlimit:4;stroke-dasharray:none;stroke-opacity:1"
       d="M 6.7694989,25.159808 8.334853,24.397063"
       id="path1005" />
    <path
       style="fill:none;stroke:#000000;stroke-width:0.0386316;stroke-linecap:butt;stroke-linejoin:miter;stroke-miterlimit:4;stroke-dasharray:none;stroke-opacity:1"
       d="M 9.9000901,24.397063 H 8.334853"
       id="path1007" />
    <path
       style="fill:none;stroke:#000000;stroke-width:0.0386316;stroke-linecap:butt;stroke-linejoin:miter;stroke-miterlimit:4;stroke-dasharray:none;stroke-opacity:1"
       d="m 9.9000901,25.922554 7.74e-5,-1.5253"
       id="path1009" />
    <path
       style="fill:none;stroke:#000000;stroke-width:0.0386316;stroke-linecap:butt;stroke-linejoin:miter;stroke-miterlimit:4;stroke-dasharray:none;stroke-opacity:1"
       d="M 9.117324,27.448045 9.9000901,25.922554"
       id="path1011" />
    <path
       style="fill:none;stroke:#000000;stroke-width:0.0386316;stroke-linecap:butt;stroke-linejoin:miter;stroke-miterlimit:4;stroke-dasharray:none;stroke-opacity:1"
       d="M 9.9002853,28.973536 9.117324,27.448045"
       id="path1013" />
    <path
       style="fill:none;stroke:#000000;stroke-width:0.0386316;stroke-linecap:butt;stroke-linejoin:miter;stroke-miterlimit:4;stroke-dasharray:none;stroke-opacity:1"
       d="m 9.9000901,30.498835 1.952e-4,-1.525299"
       id="path1015" />
    <path
       style="fill:none;stroke:#000000;stroke-width:0.0386316;stroke-linecap:butt;stroke-linejoin:miter;stroke-miterlimit:4;stroke-dasharray:none;stroke-opacity:1"
       d="m 8.3348337,30.499007 1.5652564,1.9e-5"
       id="path1017" />
    <path
       style="fill:none;stroke:#000000;stroke-width:0.0386316;stroke-linecap:butt;stroke-linejoin:miter;stroke-miterlimit:4;stroke-dasharray:none;stroke-opacity:1"
       d="m 6.7699293,29.736262 1.5649044,0.762745"
       id="path1019" />
    <path
       style="fill:none;stroke:#000000;stroke-width:0.0386316;stroke-linecap:butt;stroke-linejoin:miter;stroke-miterlimit:4;stroke-dasharray:none;stroke-opacity:1"
       d="M 5.2042817,30.499007 6.769186,29.736262"
       id="path1021" />
    <path
       style="fill:none;stroke:#000000;stroke-width:0.0386316;stroke-linecap:butt;stroke-linejoin:miter;stroke-miterlimit:4;stroke-dasharray:none;stroke-opacity:1"
       d="M 3.6389861,30.499007 H 5.2042817"
       id="path1023" />
    <path
       style="fill:#f68712;fill-opacity:1;stroke:#000000;stroke-width:0.0386316;stroke-linecap:butt;stroke-linejoin:miter;stroke-miterlimit:4;stroke-dasharray:none;stroke-opacity:1"
       d="M 4.4213991,27.44814 3.6389079,28.973344"
       id="path1025" />
    <path
       style="fill:none;stroke:#000000;stroke-width:0.0386316;stroke-linecap:butt;stroke-linejoin:miter;stroke-miterlimit:4;stroke-dasharray:none;stroke-opacity:1"
       d="M 3.6389079,30.498835 V 28.973344"
       id="path1027" />
    <path
       style="fill:none;stroke:#000000;stroke-width:0.0386316;stroke-linecap:butt;stroke-linejoin:miter;stroke-miterlimit:4;stroke-dasharray:none;stroke-opacity:1"
       d="m 3.6389666,24.397063 -5.87e-5,1.525491"
       id="path1029" />
    <path
       style="fill:none;stroke:#000000;stroke-width:0.0386316;stroke-linecap:butt;stroke-linejoin:miter;stroke-miterlimit:4;stroke-dasharray:none;stroke-opacity:1"
       d="M 4.4215556,27.448045 3.6389079,25.922554"
       id="path1031" />
    <path
       style="opacity:1;fill:#f68712;fill-opacity:1;stroke-width:0.00286869;stroke-miterlimit:4;stroke-dasharray:none"
       d="M 4.0739912,25.916431 C 3.8700765,25.120757 3.7033651,24.46709 3.7035214,24.463839 c 2.739e-4,-0.0057 2.9613857,0.712666 2.9692739,0.720353 0.00214,0.0021 -0.4982944,0.493197 -1.1120786,1.091357 l -1.1159715,1.087562 z"
       id="path1033" />
    <path
       style="opacity:1;fill:#f68712;fill-opacity:1;stroke-width:0.00286869;stroke-miterlimit:4;stroke-dasharray:none"
       d="m 3.7040962,30.427531 c 1.599e-4,-0.0059 0.1668855,-0.659515 0.3705014,-1.452592 l 0.3702107,-1.44196 1.117937,1.089539 1.1179367,1.089539 -0.037925,0.0098 C 6.2110688,29.83325 3.703883,30.435324 3.7040957,30.427544 Z"
       id="path1035" />
    <path
       style="opacity:1;fill:#f68712;fill-opacity:1;stroke-width:0.00286869;stroke-miterlimit:4;stroke-dasharray:none"
       d="M 8.3502305,30.076674 C 7.5361653,29.878142 6.8683567,29.713996 6.8662107,29.711905 6.8640689,29.709826 7.3644966,29.2187 7.9782811,28.620541 l 1.1159714,-1.087563 0.3717454,1.44937 c 0.20446,0.797154 0.3700822,1.450703 0.3680483,1.452331 -0.00198,0.0016 -0.6697512,-0.159473 -1.4838157,-0.358005 z"
       id="path1037" />
    <path
       style="opacity:1;fill:#f68712;fill-opacity:1;stroke-width:0;stroke-miterlimit:4;stroke-dasharray:none"
       d="m 9.5598888,28.998719 c -0.164735,-0.642596 -0.3011271,-1.176854 -0.3030942,-1.187237 -0.00198,-0.01039 0.133938,0.247729 0.3020118,0.573586 l 0.3055886,0.592465 -0.00247,0.594772 -0.00247,0.594773 z"
       id="path1039" />
    <path
       style="opacity:1;fill:#f68712;fill-opacity:1;stroke-width:0.00286869;stroke-miterlimit:4;stroke-dasharray:none"
       d="m 5.1712702,30.170885 c 0.6659287,-0.162919 1.215138,-0.296111 1.2204656,-0.295982 0.00533,1.3e-4 -0.2627392,0.133581 -0.5957035,0.296558 l -0.6053897,0.296321 -0.6150759,-3.43e-4 -0.6150759,-3.43e-4 z"
       id="path1041" />
    <path
       style="opacity:1;fill:#f68712;fill-opacity:1;stroke-width:0.00286869;stroke-miterlimit:4;stroke-dasharray:none"
       d="m 3.6763442,29.572026 -5.358e-4,-0.599434 0.2992111,-0.580556 c 0.164566,-0.319305 0.2993632,-0.574183 0.2995493,-0.566395 1.86e-4,0.0078 -0.1342182,0.538784 -0.298676,1.17999 l -0.2990143,1.16583 z"
       id="path1043" />
    <path
       style="opacity:1;fill:#f68712;fill-opacity:1;stroke-width:0;stroke-miterlimit:4;stroke-dasharray:none"
       d="m 3.972584,26.499355 -0.2978371,-0.580618 4.973e-4,-0.597054 4.972e-4,-0.597054 0.3000141,1.169852 c 0.1650077,0.643417 0.2988103,1.17337 0.297339,1.177671 -0.00147,0.0043 -0.1367016,-0.253456 -0.300512,-0.572797 z"
       id="path1045" />
    <path
       style="opacity:1;fill:#f68712;fill-opacity:1;stroke-width:0.00286869;stroke-miterlimit:4;stroke-dasharray:none"
       d="m 5.1664272,24.724629 -1.2059364,-0.295634 0.6150759,-3.45e-4 0.6150759,-3.45e-4 0.6053897,0.296322 c 0.3329643,0.162977 0.5988516,0.296167 0.5908602,0.295978 -0.00799,-1.9e-4 -0.5572005,-0.13338 -1.2204653,-0.295978 z"
       id="path1047" />
    <path
       style="opacity:1;fill:#f68712;fill-opacity:1;stroke-width:0;stroke-miterlimit:4;stroke-dasharray:none"
       d="m 5.1712702,24.721502 -1.1429757,-0.280071 0.583484,-0.0024 0.5834841,-0.0024 0.4626294,0.22589 c 0.5322693,0.259893 0.6913416,0.340431 0.6708834,0.339664 -0.00799,-2.99e-4 -0.5288687,-0.126576 -1.1575052,-0.280615 z"
       id="path1049" />
    <path
       style="opacity:1;fill:#f68712;fill-opacity:1;stroke-width:0;stroke-miterlimit:4;stroke-dasharray:none"
       d="m 3.6853518,29.535209 -9.144e-4,-0.570172 0.2831149,-0.546705 c 0.1557132,-0.300688 0.2844143,-0.542905 0.2860025,-0.538262 0.00159,0.0047 -0.1254001,0.507238 -0.2821963,1.116877 l -0.2850839,1.108434 z"
       id="path1053" />
    <path
       style="opacity:1;fill:#f68712;fill-opacity:1;stroke-width:0.00286869;stroke-miterlimit:4;stroke-dasharray:none"
       d="m 7.9762526,26.273571 -1.1179373,-1.089539 0.037925,-0.0098 c 0.4316882,-0.111396 2.9388734,-0.713469 2.9386609,-0.705688 -1.598e-4,0.0059 -0.1668859,0.659515 -0.3705015,1.452592 l -0.3702107,1.44196 z"
       id="path1057" />
    <path
       style="opacity:1;fill:#f68712;fill-opacity:1;stroke-width:0;stroke-miterlimit:4;stroke-dasharray:none"
       d="m 7.7429657,24.724629 0.6053894,-0.296322 0.6150749,3.41e-4 0.6150762,3.41e-4 -1.2107783,0.296217 c -0.6659289,0.162919 -1.2151382,0.29611 -1.2204658,0.295981 -0.00533,-1.29e-4 0.2627391,-0.13358 0.5957036,-0.296558 z"
       id="path1059" />
    <path
       style="opacity:1;fill:#f68712;fill-opacity:1;stroke-width:0;stroke-miterlimit:4;stroke-dasharray:none"
       d="m 9.2548389,27.094048 c -1.326e-4,-0.0052 0.1365346,-0.540435 0.3037047,-1.18943 l 0.3039452,-1.179989 3.525e-4,0.599434 3.518e-4,0.599435 -0.3040539,0.589994 C 9.3919098,26.83799 9.2549765,27.099239 9.2548439,27.094048 Z"
       id="path1061" />
    <path
       style="opacity:1;fill:#f68712;fill-opacity:1;stroke-width:0.00030181;stroke-miterlimit:4;stroke-dasharray:none"
       d="M 7.5655207,25.906777 6.8260561,25.186116 7.6259016,24.991289 c 0.4399146,-0.107154 0.8003609,-0.194806 0.8009915,-0.194782 6.43e-4,2.4e-5 0.00116,8.66e-4 0.00116,0.0019 0,0.0012 -0.034727,0.01025 -0.1043277,0.02699 -0.3636751,0.0875 -1.0567722,0.25573 -1.1659465,0.283003 -0.018078,0.0045 -0.057628,0.01434 -0.087895,0.02183 -0.062357,0.01544 -0.2067431,0.05186 -0.210112,0.053 -0.00146,4.76e-4 0.254457,0.250906 0.7383174,0.722462 l 0.7405385,0.721709 h -0.016817 -0.016817 z"
       id="path1063" />
    <path
       style="opacity:1;fill:#f68712;fill-opacity:1;stroke-width:0.00030181;stroke-miterlimit:4;stroke-dasharray:none"
       d="m 5.2012735,26.626769 c 3.522e-4,-3.62e-4 0.1984007,-0.193608 0.440112,-0.429422 0.5256241,-0.512801 0.7613364,-0.743573 0.9340095,-0.914438 0.079893,-0.07906 0.098185,-0.09776 0.096833,-0.09902 -0.00373,-0.0035 -0.2790777,-0.07145 -1.041925,-0.257233 -0.3937278,-0.09588 -0.5178163,-0.126627 -0.5178163,-0.128279 0,-0.0013 0.00104,-0.0019 0.00268,-0.0015 0.00147,3.65e-4 0.3615737,0.08809 0.8002274,0.194956 l 0.7975526,0.194295 -0.7394649,0.720662 -0.7394645,0.720661 h -0.016691 c -0.00918,0 -0.016401,-3.04e-4 -0.01605,-6.47e-4 z"
       id="path1065" />
    <path
       style="opacity:1;fill:#f68712;fill-opacity:1;stroke-width:0.00030181;stroke-miterlimit:4;stroke-dasharray:none"
       d="M 7.6301057,29.905736 C 7.192503,29.799032 6.8324464,29.711229 6.8299797,29.710619 c -0.00436,-0.001 0.012659,-0.01782 0.605328,-0.595417 l 0.6098141,-0.594308 h 0.017438 0.017443 l -0.4087636,0.398879 c -0.3909655,0.38151 -0.6999962,0.684708 -0.7723266,0.757749 -0.032292,0.03261 -0.033613,0.03418 -0.030008,0.03547 0.012457,0.0045 0.4832787,0.120366 1.3279228,0.326793 0.1528467,0.03736 0.231197,0.05714 0.2312021,0.05837 0,0.001 -5.144e-4,0.0018 -0.00111,0.0017 -6.43e-4,-7.5e-5 -0.3591851,-0.08744 -0.7967874,-0.194144 z"
       id="path1067" />
    <path
       style="opacity:1;fill:#f68712;fill-opacity:1;stroke-width:0.00030181;stroke-miterlimit:4;stroke-dasharray:none"
       d="m 5.1124868,30.097981 c 0,-0.0012 0.00121,-0.0026 0.00268,-0.003 0.00147,-4.31e-4 0.086252,-0.02089 0.188401,-0.04545 0.4471348,-0.10754 1.0082756,-0.244174 1.2213584,-0.297394 0.048737,-0.01217 0.1487588,-0.03754 0.1534546,-0.03891 0.00227,-6.48e-4 -0.1245699,-0.125062 -0.6083857,-0.596576 l -0.6112743,-0.59572 h 0.017579 0.017579 l 0.6097434,0.594239 c 0.4851055,0.472771 0.6091533,0.594418 0.6068568,0.595114 -0.00159,4.75e-4 -0.3605804,0.08808 -0.7977628,0.194662 -0.4371821,0.106583 -0.7960805,0.194129 -0.7975517,0.194547 -0.00171,4.75e-4 -0.00268,-5.1e-5 -0.00268,-0.0015 z"
       id="path1069" />
    <path
       style="opacity:1;fill:#f68712;fill-opacity:1;stroke-width:0;stroke-miterlimit:4;stroke-dasharray:none"
       d="m 5.1529949,30.468028 0.041273,-8.21e-4 0.086366,-0.04264 c 0.047502,-0.02345 0.1847325,-0.09074 0.3049575,-0.149533 0.4730421,-0.231322 0.7727482,-0.379687 0.8025194,-0.397276 0.0036,-0.0021 0.00395,-0.0027 0.00163,-0.0027 -0.00546,-1.1e-5 -0.2834075,0.06724 -1.0147986,0.245514 -0.2056288,0.05012 -0.2625174,0.0635 -0.2621538,0.06167 3.521e-4,-0.0018 0.1512875,-0.0391 0.674578,-0.16664 0.3707627,-0.09036 0.6748017,-0.164294 0.6756427,-0.164298 8.568e-4,-5e-6 -0.2835424,0.139079 -0.6319624,0.309075 L 5.197556,30.469462 5.154637,30.469138 5.111718,30.468814 Z"
       id="path1071" />
    <path
       style="opacity:1;fill:#f68712;fill-opacity:1;stroke-width:0;stroke-miterlimit:4;stroke-dasharray:none"
       d="m 3.6699585,29.597974 c -1.111e-4,-0.607261 -5.78e-5,-0.619084 0.00282,-0.6242 0.00289,-0.0051 0.00292,0.0027 0.00299,0.596565 3.72e-5,0.348928 6.301e-4,0.601185 0.00142,0.600364 9.885e-4,-0.001 0.3396843,-1.321115 0.4288341,-1.671407 0.00692,-0.0272 0.01011,-0.03736 0.011822,-0.03768 0.0018,-3.43e-4 -0.050611,0.206194 -0.2220683,0.875219 -0.1234269,0.481611 -0.2247022,0.876663 -0.2250563,0.877892 -3.541e-4,0.0012 -6.944e-4,-0.27631 -7.587e-4,-0.616752 z"
       id="path1073" />
    <path
       style="opacity:1;fill:#f68712;fill-opacity:1;stroke-width:0;stroke-miterlimit:4;stroke-dasharray:none"
       d="m 3.8685209,28.593072 c 1.577e-4,-0.0026 0.4338706,-0.846114 0.4339096,-0.843861 2.12e-5,0.0012 -0.041041,0.162266 -0.09125,0.357859 -0.070111,0.273125 -0.091742,0.35535 -0.093243,0.354443 -0.00151,-8.66e-4 0.00751,-0.03845 0.03944,-0.164159 0.072995,-0.287403 0.1176683,-0.466123 0.1176683,-0.47074 0,-0.0058 -0.00762,0.007 -0.041611,0.07009 -0.057939,0.107475 -0.1262145,0.237999 -0.2583268,0.493847 -0.057117,0.110613 -0.1044845,0.201752 -0.1052606,0.20253 -8.897e-4,8.66e-4 -0.00138,8.66e-4 -0.00133,0 z"
       id="path1075" />
    <path
       style="opacity:1;fill:#f68712;fill-opacity:1;stroke-width:0.00030181;stroke-miterlimit:4;stroke-dasharray:none"
       d="M 4.2799622,26.735991 C 4.1872441,26.374545 4.1117505,26.07846 4.1121988,26.078023 c 4.458e-4,-4.31e-4 0.00124,-3.81e-4 0.00176,1.31e-4 5.231e-4,5.18e-4 0.07483,0.289052 0.1651293,0.641207 0.090299,0.352156 0.1645383,0.641257 0.1649762,0.642447 5.229e-4,0.0014 0.129681,-0.123441 0.3787295,-0.366156 l 0.3779338,-0.368321 0.016382,4.2e-4 0.016382,4.2e-4 -0.3924784,0.382489 -0.3924783,0.38249 z"
       id="path1077" />
    <path
       style="opacity:1;fill:#f68712;fill-opacity:1;stroke-width:0;stroke-miterlimit:4;stroke-dasharray:none"
       d="M 4.0270294,26.613288 C 3.8759076,26.318729 3.75292,26.077726 3.7537236,26.077726 c 8.059e-4,0 0.074059,0.141283 0.1627913,0.313962 0.2269243,0.441614 0.3473915,0.672103 0.3555968,0.680363 0.00233,0.0023 0.00172,-0.0013 -0.0048,-0.02884 -0.019351,-0.08163 -0.1470489,-0.587566 -0.2197161,-0.870515 -0.021839,-0.08503 -0.024093,-0.09497 -0.021548,-0.09497 0.0017,0 0.00316,0.0013 0.00362,0.0034 4.33e-4,0.0018 0.062034,0.242275 0.1368912,0.534293 0.074858,0.292018 0.1359093,0.531512 0.1356706,0.53221 -2.388e-4,6.91e-4 -0.1240792,-0.239734 -0.2752008,-0.534293 z"
       id="path1079" />
    <path
       style="opacity:1;fill:#f68712;fill-opacity:1;stroke-width:0;stroke-miterlimit:4;stroke-dasharray:none"
       d="m 3.6698561,25.147012 1.39e-4,-0.467405 0.1199081,0.466859 c 0.065949,0.256772 0.1195708,0.467188 0.1191585,0.467589 -4.129e-4,4.01e-4 -0.00164,4.01e-4 -0.00273,-1.9e-5 -0.00122,-4.76e-4 -0.045701,-0.171278 -0.1158544,-0.444871 -0.062633,-0.244266 -0.1143953,-0.44412 -0.1150278,-0.44412 -6.301e-4,0 -0.00115,0.200109 -0.00115,0.444686 0,0.394284 -2.602e-4,0.444687 -0.00229,0.444687 -0.00203,0 -0.00227,-0.05287 -0.00215,-0.467406 z"
       id="path1081" />
    <path
       style="opacity:1;fill:#f68712;fill-opacity:1;stroke-width:0;stroke-miterlimit:4;stroke-dasharray:none"
       d="m 3.9908541,25.608831 c -0.00969,-0.03567 -0.2966185,-1.156964 -0.2961701,-1.157401 3.366e-4,-3.28e-4 0.3190176,0.07696 0.7081797,0.171744 0.5199358,0.126639 0.7082925,0.173071 0.7103019,0.175094 0.00151,0.0015 0.00225,0.0028 0.00166,0.0028 -5.874e-4,0 -0.091247,-0.02183 -0.2014538,-0.04852 -0.6433483,-0.155791 -1.1047214,-0.266276 -1.2065891,-0.28894 -0.00198,-4.31e-4 -0.00344,-6e-5 -0.00344,8.66e-4 0,0.0022 0.022693,0.09244 0.064214,0.255381 0.018582,0.07293 0.041963,0.164765 0.051958,0.204094 0.00999,0.03933 0.053637,0.2102 0.096982,0.379715 0.043346,0.169513 0.078809,0.308784 0.078809,0.309492 0,0.0036 -0.00313,5.61e-4 -0.00446,-0.0043 z"
       id="path1083" />
    <path
       style="opacity:1;fill:#f68712;fill-opacity:1;stroke-width:0.000603617;stroke-miterlimit:4;stroke-dasharray:none"
       d="M 4.0039816,26.58682 3.6608102,25.917922 v -0.639095 -0.639096 h 0.00905 c 0.00788,0 0.00945,0.0014 0.012088,0.01117 0.019448,0.0716 0.6667167,2.60038 0.6660761,2.602252 -4.801e-4,0.0014 -0.1553026,-0.298444 -0.344047,-0.666337 z m 0.1722843,0.06094 C 4.0201117,26.036304 4.0321507,26.082349 4.0268707,26.076376 c -0.00554,-0.0062 -0.1219901,-0.460192 -0.1185974,-0.462301 0.00137,-8.64e-4 -0.051657,-0.212044 -0.1178266,-0.469322 l -0.1203096,-0.467778 0.00115,0.619864 0.00115,0.619862 0.041298,0.0818 c 0.022714,0.04499 0.058147,0.115992 0.078741,0.157779 0.062867,0.127565 0.5083322,0.993629 0.5094292,0.990422 5.658e-4,-0.0016 -0.055968,-0.226179 -0.1256275,-0.498947 z"
       id="path1089" />
    <path
       style="opacity:1;fill:#f68712;fill-opacity:1;stroke-width:0.000603617;stroke-miterlimit:4;stroke-dasharray:none"
       d="m 4.0777229,26.023645 -0.3550027,-1.383914 0.00955,7.1e-5 0.00955,7e-5 0.1238174,0.484585 c 0.068099,0.26652 0.1253235,0.486071 0.1271644,0.487888 0.00379,0.0037 0.1173162,0.446542 0.1192182,0.464983 6.773e-4,0.0066 0.076387,0.305344 0.1682474,0.663977 l 0.167018,0.652058 -0.00728,0.0071 -0.00728,0.0071 z"
       id="path1091" />
    <path
       style="opacity:1;fill:#f68712;fill-opacity:1;stroke-width:0.000603617;stroke-miterlimit:4;stroke-dasharray:none"
       d="m 3.6612573,29.649717 -1.086e-4,-0.67336 0.3435985,-0.668893 c 0.1889791,-0.36789 0.3436331,-0.66688 0.3436754,-0.664423 4.23e-5,0.0024 -0.1545281,0.606473 -0.3434898,1.342254 l -0.3435667,1.337783 z m 0.2208335,-0.254989 c 0.1149823,-0.449692 0.2179834,-0.852481 0.2288912,-0.895088 0.010909,-0.0426 0.058568,-0.227535 0.1059117,-0.410953 0.047343,-0.183418 0.085599,-0.33489 0.085012,-0.336606 -0.0012,-0.0035 -0.3408542,0.652934 -0.3975922,0.768416 -0.052836,0.107539 -0.2287142,0.449721 -0.2317553,0.450893 -0.00142,5.62e-4 -0.00258,0.280654 -0.00258,0.622462 0,0.341808 6.859e-4,0.6208 0.00152,0.619982 8.403e-4,-8.2e-4 0.095601,-0.369416 0.2105838,-0.819106 z"
       id="path1095" />
    <path
       style="opacity:1;fill:#f68712;fill-opacity:1;stroke-width:0.000603617;stroke-miterlimit:4;stroke-dasharray:none"
       d="m 5.1909477,30.142639 c 0.7583428,-0.184976 1.380181,-0.336286 1.3818624,-0.336244 0.00167,4.1e-5 -0.3071741,0.151432 -0.6863452,0.336425 l -0.6894028,0.336351 -0.6924598,-1.06e-4 -0.6924598,-1.06e-4 z m 0.6371015,0.02066 c 0.3457227,-0.168995 0.6299622,-0.308585 0.631644,-0.3102 0.00202,-0.0019 9.885e-4,-0.0023 -0.00304,-0.0012 -0.00339,9.53e-4 -0.1581348,0.03854 -0.343937,0.08353 -0.5081837,0.123025 -0.9909167,0.242152 -1.0012389,0.247082 -0.00504,0.0024 -0.266129,0.0672 -0.5801879,0.143982 l -0.5710164,0.139601 0.580188,0.0015 c 0.3191033,8.2e-4 0.5979249,0.0018 0.6196033,0.0023 l 0.039415,7.34e-4 z"
       id="path1097" />
    <path
       style="opacity:1;fill:#f68712;fill-opacity:1;stroke-width:0.000603617;stroke-miterlimit:4;stroke-dasharray:none"
       d="m 8.3383853,30.097444 -1.5280111,-0.372575 0.00818,-0.0083 c 0.00614,-0.0062 0.00943,-0.0076 0.013161,-0.0055 0.00788,0.0044 1.5845241,0.387822 1.5947296,0.387817 0.00504,-2e-6 0.1219832,0.02742 0.2598635,0.06094 0.3066049,0.07454 1.0018083,0.242311 1.0846029,0.261748 0.03324,0.0078 0.061256,0.01339 0.062253,0.01242 0.00222,-0.0022 0.00354,0.0034 -0.045184,-0.19129 -0.06395,-0.255613 -0.1404088,-0.555507 -0.3652054,-1.432373 -0.1166832,-0.455147 -0.2121517,-0.828886 -0.2121517,-0.830529 0,-0.0016 0.00461,-0.0029 0.010322,-0.0029 h 0.010322 l 0.3184486,1.241696 c 0.1751468,0.682932 0.3191769,1.244042 0.3200674,1.24691 9.062e-4,0.0029 4.712e-4,0.0051 -9.062e-4,0.0049 -0.0014,-1.5e-4 -0.6901034,-0.167931 -1.5305092,-0.372848 z"
       id="path1099" />
    <path
       style="opacity:1;fill:#f68712;fill-opacity:1;stroke-width:0.000603617;stroke-miterlimit:4;stroke-dasharray:none"
       d="M 9.532555,28.981486 C 9.342736,28.241971 9.188005,27.636354 9.188706,27.63567 c 6.862e-4,-6.9e-4 0.156428,0.301362 0.3460592,0.671211 l 0.344784,0.672455 -9.061e-4,0.67336 -9.062e-4,0.673362 z m 0.3313655,0.352407 9.062e-4,-0.357536 -0.097891,-0.190687 c -0.1308596,-0.254908 -0.3844094,-0.743968 -0.439899,-0.848502 -0.054674,-0.102994 -0.068646,-0.128043 -0.070441,-0.12629 -0.00165,0.0016 0.5868412,2.305487 0.5990702,2.34535 0.00428,0.01403 0.00684,-0.240394 0.00829,-0.822335 z"
       id="path1101" />
    <path
       style="opacity:1;fill:#f68712;fill-opacity:1;stroke-width:0.000603617;stroke-miterlimit:4;stroke-dasharray:none"
       d="m 8.5767579,28.00512 c 0.2900085,-0.282637 0.5281633,-0.512913 0.5292326,-0.511724 0.00107,0.0011 0.029013,0.108082 0.062105,0.23754 0.033091,0.129458 0.060885,0.237725 0.061775,0.240593 0.00132,0.0042 -3.139e-4,0.0052 -0.00914,0.0052 -0.00984,0 -0.011039,-9.53e-4 -0.013947,-0.01117 -0.00173,-0.0061 -0.027498,-0.105696 -0.05722,-0.221225 -0.029722,-0.11553 -0.054551,-0.210667 -0.055177,-0.211417 -6.434e-4,-7.35e-4 -0.2291123,0.220811 -0.5077482,0.492358 L 8.0800237,28.51899 h -0.015278 -0.015278 z"
       id="path1103" />
    <path
       style="opacity:1;fill:#f68712;fill-opacity:1;stroke-width:0.000603617;stroke-miterlimit:4;stroke-dasharray:none"
       d="m 9.1887085,27.2572 c 5.19e-5,-0.0033 0.1372068,-0.539583 0.3047879,-1.19179 l 0.3046949,-1.185831 0.011467,-8.66e-4 c 0.00634,-5.18e-4 0.011459,-4.21e-4 0.011459,1.92e-4 0,6.05e-4 -0.058554,0.22829 -0.1301248,0.505946 -0.1470913,0.570649 -0.4184865,1.629462 -0.4301026,1.677996 -0.0042,0.01762 -0.00676,0.03203 -0.00568,0.03203 0.00412,0 0.2367084,-0.445869 0.4837693,-0.927354 L 9.863957,25.923958 v -0.522904 -0.522905 h 0.00766 0.00766 l -1.689e-4,0.520663 -1.697e-4,0.520664 -0.3451275,0.671871 c -0.189819,0.369529 -0.3450838,0.669189 -0.3450327,0.665912 z"
       id="path1105" />
    <path
       style="opacity:1;fill:#f68712;fill-opacity:1;stroke-width:0.000603617;stroke-miterlimit:4;stroke-dasharray:none"
       d="M 8.7051611,27.01579 8.3062777,26.627041 h 0.015278 0.015278 l 0.3782098,0.368583 c 0.208016,0.202721 0.3787538,0.367971 0.3794194,0.367221 6.854e-4,-7.35e-4 0.1431792,-0.555099 0.3166998,-1.231887 0.1735189,-0.676787 0.3168505,-1.23555 0.3185129,-1.241695 0.00272,-0.01019 0.00395,-0.01117 0.013609,-0.01117 0.00585,0 0.010586,6.91e-4 0.010586,0.0015 0,0.0045 -0.6462496,2.520991 -0.6478716,2.522795 -0.00107,0.0011 -0.181442,-0.172775 -0.4008277,-0.386587 z"
       id="path1107" />
    <path
       style="opacity:1;fill:#f68712;fill-opacity:1;stroke-width:0.000603617;stroke-miterlimit:4;stroke-dasharray:none"
       d="m 9.79981,24.876035 c 4.86e-5,-0.0013 0.01781,-0.0708 0.039467,-0.154367 l 0.039377,-0.151954 2.735e-4,0.154187 2.743e-4,0.154188 h -0.00766 -0.00766 v -0.07648 c 0,-0.04206 -8.238e-4,-0.07566 -0.00181,-0.07467 -9.885e-4,9.52e-4 -0.01038,0.03507 -0.020809,0.07573 l -0.018955,0.07392 -0.011294,8.66e-4 c -0.00618,5.18e-4 -0.011245,-1.62e-4 -0.011203,-0.0015 z"
       id="path1109" />
    <path
       style="opacity:1;fill:#f68712;fill-opacity:1;stroke-width:0.000603617;stroke-miterlimit:4;stroke-dasharray:none"
       d="m 6.8192671,25.177874 -0.00673,-0.007 1.5287498,-0.372469 c 0.8408119,-0.204858 1.5287084,-0.371631 1.5286582,-0.370606 -4.94e-5,0.001 -0.025924,0.10242 -0.0575,0.225323 l -0.057409,0.223461 -0.011558,9.52e-4 c -0.00997,8.2e-4 -0.011327,1.94e-4 -0.00988,-0.0045 0.00395,-0.01282 0.098555,-0.388915 0.1002422,-0.398701 8.238e-4,-0.0049 -4.291e-4,-0.0058 -0.00659,-0.005 -0.0237,0.0029 -0.5648076,0.130285 -1.1036552,0.259735 -0.2999398,0.07206 -0.2965498,0.07127 -0.2965498,0.06858 0,-0.0012 -0.3573504,0.08473 -0.794112,0.191058 -0.4367621,0.106327 -0.796994,0.193954 -0.8005156,0.194726 -0.00412,8.67e-4 -0.00881,-0.001 -0.013134,-0.0055 z"
       id="path1111" />
    <path
       style="opacity:1;fill:#f68712;fill-opacity:1;stroke-width:0.000603617;stroke-miterlimit:4;stroke-dasharray:none"
       d="m 7.6535531,24.752952 0.6894028,-0.336351 0.693988,1.06e-4 0.6939884,1.06e-4 -1.3788049,0.33632 c -0.7583427,0.184975 -1.3808688,0.336286 -1.3833912,0.336244 -0.00253,-4.1e-5 0.3056455,-0.151433 0.6848169,-0.336425 z m 0.7088172,-0.02533 c 0.6619088,-0.161411 1.2062234,-0.294726 1.209586,-0.296255 0.00379,-0.0017 -0.2262481,-0.0029 -0.6101492,-0.0029 l -0.6162629,-2.03e-4 -0.4445905,0.217785 c -0.4034989,0.197655 -0.6953593,0.342062 -0.7396126,0.365948 -0.012821,0.0069 -0.015111,0.0091 -0.00963,0.0091 0.00395,3.1e-5 0.5487477,-0.132009 1.2106576,-0.293421 z"
       id="path1113" />
    <path
       style="opacity:1;fill:#f68712;fill-opacity:1;stroke-width:0.000603617;stroke-miterlimit:4;stroke-dasharray:none"
       d="m 5.18562,24.752952 -1.3772766,-0.336138 0.6939885,-1.07e-4 0.6939885,-1.06e-4 0.6894025,0.336351 c 0.3791714,0.184992 0.6866512,0.336303 0.6832882,0.336244 -0.00336,-5.8e-5 -0.6258889,-0.151369 -1.3833911,-0.336244 z m 1.1998052,0.265392 C 6.3760976,25.009478 6.1334953,24.8886 5.6245845,24.639256 l -0.4308142,-0.211082 -0.6178116,7.35e-4 -0.6178116,7.34e-4 0.7520756,0.184312 c 0.4136415,0.10137 0.9384894,0.229584 1.1663285,0.284917 0.2278394,0.05533 0.4335133,0.105337 0.4570541,0.11112 0.045134,0.01109 0.056684,0.01294 0.05182,0.0083 z"
       id="path1115" />
    <path
       style="opacity:1;fill:#f68712;fill-opacity:1;stroke-width:0.000603617;stroke-miterlimit:4;stroke-dasharray:none"
       d="m 4.180038,26.32388 c -0.00506,-0.01852 -0.3000579,-1.170125 -0.3320792,-1.296344 -0.020544,-0.08098 -0.030638,-0.115982 -0.032649,-0.11322 -0.00202,0.0028 -0.00235,0.0017 -0.00108,-0.0035 0.00243,-0.0099 -0.056665,-0.242424 -0.060342,-0.237454 -0.00164,0.0022 -0.00203,8.66e-4 -0.00103,-0.0035 0.00231,-0.01018 -0.013489,-0.07326 -0.017116,-0.06831 -0.00191,0.0026 -0.00224,0.0014 -0.00102,-0.0036 0.0025,-0.01027 -0.020154,-0.100389 -0.023436,-0.09321 -0.0016,0.0035 -0.00194,0.0021 -9.968e-4,-0.004 7.845e-4,-0.0051 2.427e-4,-0.01316 -0.00121,-0.01788 -0.002,-0.0065 -0.00277,-0.0072 -0.00317,-0.0026 -2.954e-4,0.0033 -0.00245,-7.34e-4 -0.00479,-0.0089 -0.00234,-0.0082 -0.00394,-0.01563 -0.00355,-0.01653 3.855e-4,-8.66e-4 0.1773761,0.04126 0.3933109,0.09368 0.2159347,0.05242 0.3912649,0.09575 0.3896224,0.09628 -0.00164,5.18e-4 -0.062066,-0.01322 -0.1342738,-0.03056 -0.3536335,-0.0849 -0.4919379,-0.117597 -0.4942934,-0.116831 -0.00142,4.74e-4 0.026711,0.0079 0.06251,0.01645 0.8473737,0.20325 1.9432446,0.468921 2.4234234,0.587509 0.1469579,0.03629 0.269354,0.06518 0.2719916,0.0642 0.00487,-0.0018 0.098241,0.01933 0.098241,0.02226 0,8.64e-4 -0.2645747,0.259435 -0.5879437,0.574577 l -0.5879439,0.572988 -0.014187,-9.53e-4 -0.01419,-9.53e-4 0.3734255,-0.364985 c 0.6738819,-0.658651 0.7942045,-0.777436 0.7940596,-0.783915 -5.66e-5,-0.0025 -0.00142,-0.0018 -0.00343,0.0018 -0.00462,0.0082 -0.3230082,0.321522 -0.9226807,0.907995 L 5.4991968,26.335045 H 4.8411427 4.1830886 Z m 2.4850209,-1.143122 c -0.00223,-0.0022 -0.052374,-0.01401 -0.053735,-0.01269 -7.287e-4,6.91e-4 0.00941,0.004 0.022519,0.0073 0.023774,0.0061 0.033626,0.0077 0.031216,0.0054 z M 3.8144578,24.487585 c -0.018496,-0.0048 -0.035693,-0.0085 -0.038215,-0.0084 -0.00638,2.86e-4 0.058187,0.01695 0.06573,0.01697 0.00336,7e-6 -0.00902,-0.0038 -0.027515,-0.0086 z m -0.058087,-0.01335 c -0.00841,-0.0023 -0.023885,-0.006 -0.034394,-0.0084 -0.018923,-0.0043 -0.019107,-0.0042 -0.019061,0.0021 3.7e-5,0.0051 6.387e-4,0.0055 0.00287,0.0021 0.00244,-0.0037 0.00626,-0.0035 0.028233,0.0019 0.027896,0.0068 0.046907,0.0088 0.022359,0.0023 z"
       id="path1117" />
    <path
       style="opacity:1;fill:#f68712;fill-opacity:1;stroke-width:0.000603617;stroke-miterlimit:4;stroke-dasharray:none"
       d="M 5.9162951,24.990923 C 5.4816352,24.884676 5.1218771,24.797136 5.1168327,24.79639 5.1117927,24.795645 5.0175497,24.77274 4.9074132,24.74549 4.595978,24.66843 3.7050208,24.452071 3.6990479,24.452047 c -0.00294,-1.2e-5 -0.00531,3.13e-4 -0.00526,7.34e-4 4.59e-5,4.1e-4 0.010889,0.04265 0.024094,0.09385 l 0.024011,0.09311 h -0.00962 -0.00962 l -0.026787,-0.105027 c -0.014733,-0.05776 -0.026751,-0.105865 -0.026707,-0.106889 4.4e-5,-10e-4 0.6880175,0.165748 1.5288299,0.370606 l 1.5287496,0.372469 -0.00679,0.007 c -0.00373,0.0039 -0.00827,0.0068 -0.010078,0.0066 -0.0018,-2.4e-4 -0.3589198,-0.08737 -0.7935797,-0.193615 z"
       id="path1119" />
    <path
       style="opacity:1;fill:#f68712;fill-opacity:1;stroke-width:0.000603617;stroke-miterlimit:4;stroke-dasharray:none"
       d="m 3.6608799,24.606213 2.777e-4,-0.03352 0.00722,0.02681 c 0.00397,0.01475 0.008,0.02983 0.00895,0.03352 0.00152,0.0058 5.53e-4,0.0067 -0.0075,0.0067 h -0.00923 z"
       id="path1121" />
  </g>
</svg>
