<svg xmlns="http://www.w3.org/2000/svg" viewBox="0 0 16 16">
  <mask id="outline">
    <rect x="0" y="0" width="16" height="16" fill="white" />
    <rect x="9" y="9" width="7" height="7" fill="black" />
  </mask>
  <g fill="none" fill-rule="evenodd" mask="url(#outline)">
    <path fill="#40B6E0" fill-opacity=".6" d="M15,8 C15,11.866 11.866,15 8,15 C4.134,15 1,11.866 1,8 C1,4.134 4.134,1 8,1 C11.866,1 15,4.134 15,8"/>
    <polygon fill="#231F20" fill-opacity=".7" points="4 6 0 6 0 0 4 0 4 1 1 1 1 2 3.5 2 3.5 3 1 3 1 5 4 5" transform="translate(6 5)"/>
  </g>
  <g>
    <rect x="11" y="11" width="4" height="4" fill="#f7941e" />
    <path d="M11,13 l-1,-1.5 l0,-1.5 l1.5,0 l1.5,1 Z" fill="#fdb813" />
    <path d="M11,13 l-1,1.5 l0,1.5 l1.5,0 l1.5,-1 Z" fill="#fdb813" />
    <path d="M15,13 l1,-1.5 l0,-1.5 l-1.5,0 l-1.5,1 Z" fill="#f58220" />
    <path d="M15,13 l1,1.5 l0,1.5 l-1.5,0 l-1.5,-1 Z" fill="#f58220" />
  </g>
</svg>
