<svg xmlns="http://www.w3.org/2000/svg" width="16" height="16" viewBox="0 0 16 16">
  <mask id="outline">
    <rect x="0" y="0" width="16" height="16" fill="white" />
    <rect x="7" y="9" width="11" height="7" fill="black" />
  </mask>
  <g fill="none" fill-opacity=".8" fill-rule="evenodd" mask="url(#outline)">
    <polygon fill="#9AA7B0" points="7 1 3 5 7 5"/>
    <polygon fill="#9AA7B0" points="8 1 8 6 3 6 3 15 13 15 13 1"/>
  </g>
  <g>
    <rect x="9" y="11" width="4" height="4" fill="#f7941e" />
    <path d="M9,13 l-1,-1.5 l0,-1.5 l1.5,0 l1.5,1 Z" fill="#fdb813" />
    <path d="M9,13 l-1,1.5 l0,1.5 l1.5,0 l1.5,-1 Z" fill="#fdb813" />
    <path d="M13,13 l1,-1.5 l0,-1.5 l-1.5,0 l-1.5,1 Z" fill="#f58220" />
    <path d="M13,13 l1,1.5 l0,1.5 l-1.5,0 l-1.5,-1 Z" fill="#f58220" />
  </g>
</svg>
