<?xml version="1.0" encoding="UTF-8" standalone="no"?>
<svg
   xmlns:dc="http://purl.org/dc/elements/1.1/"
   xmlns:cc="http://creativecommons.org/ns#"
   xmlns:rdf="http://www.w3.org/1999/02/22-rdf-syntax-ns#"
   xmlns:svg="http://www.w3.org/2000/svg"
   xmlns="http://www.w3.org/2000/svg"
   xmlns:sodipodi="http://sodipodi.sourceforge.net/DTD/sodipodi-0.dtd"
   xmlns:inkscape="http://www.inkscape.org/namespaces/inkscape"
   width="40"
   height="40"
   viewBox="0 0 40 40"
   version="1.1"
   id="svg146"
   sodipodi:docname="haxeLogoFlatter.svg"
   inkscape:version="1.0.1 (3bc2e813f5, 2020-09-07)">
  <metadata
     id="metadata152">
    <rdf:RDF>
      <cc:Work
         rdf:about="">
        <dc:format>image/svg+xml</dc:format>
        <dc:type
           rdf:resource="http://purl.org/dc/dcmitype/StillImage" />
        <dc:title></dc:title>
      </cc:Work>
    </rdf:RDF>
  </metadata>
  <defs
     id="defs150" />
  <sodipodi:namedview
     pagecolor="#ffffff"
     bordercolor="#666666"
     borderopacity="1"
     objecttolerance="10"
     gridtolerance="10"
     guidetolerance="10"
     inkscape:pageopacity="0"
     inkscape:pageshadow="2"
     inkscape:window-width="1920"
     inkscape:window-height="976"
     id="namedview148"
     showgrid="false"
     inkscape:zoom="8"
     inkscape:cx="3.4077553"
     inkscape:cy="11.585105"
     inkscape:window-x="-8"
     inkscape:window-y="-8"
     inkscape:window-maximized="1"
     inkscape:current-layer="g2811" />
  <g
     fill="none"
     fill-rule="evenodd"
     transform="translate(4 4)"
     id="g144">
    <path
       style="opacity:1;fill:#f68712;fill-opacity:1;stroke-width:0.0148515;stroke-miterlimit:4;stroke-dasharray:none"
       d=""
       id="path1055"
       transform="translate(-4,-4)" />
    <path
       style="opacity:1;fill:#f68712;fill-opacity:1;stroke-width:0.0015625;stroke-miterlimit:4;stroke-dasharray:none"
       d=""
       id="path1085"
       transform="translate(-4,-4)" />
    <path
       style="opacity:1;fill:#f68712;fill-opacity:1;stroke-width:0.0015625;stroke-miterlimit:4;stroke-dasharray:none"
       d=""
       id="path1087"
       transform="translate(-4,-4)" />
    <path
       style="opacity:1;fill:#f68712;fill-opacity:1;stroke-width:0.003125;stroke-miterlimit:4;stroke-dasharray:none"
       d=""
       id="path1093"
       transform="translate(-4,-4)" />
    <g
       id="g2811">
      <path
         fill="#FBC707"
         d="M24.0003,0 L16.0003,4 L25.3213,3.199 L32.0003,0 L24.0003,0 Z M0.0003,0 L6.8863,2.991 L16.0003,4 L8.0003,0 L0.0003,0 Z"
         id="path120" />
      <path
         fill="#F68712"
         d="M16.0002,27.9999 L16.0022,27.9999 L16.0002,27.9989 L16.0002,27.9999 Z M24.0002,31.9999 L32.0002,31.9999 L24.6952,28.3119 L16.0022,27.9999 L24.0002,31.9999 Z"
         id="path122"
         style="stroke-width:1;stroke-miterlimit:4;stroke-dasharray:none" />
      <path
         fill="#F25C19"
         d="M15.9984,27.9999 L16.0004,27.9999 L16.0004,27.9989 L15.9984,27.9999 Z M7.2344,27.9999 L0.0004,31.9999 L8.0004,31.9999 L15.9984,27.9999 L7.2344,27.9999 Z"
         id="path124" />
      <polygon
         fill="#FFF200"
         points="0 23.999 0 31.999 4 24.417 4 16"
         id="polygon126" />
      <polygon
         fill="#FFF200"
         points="0 0 0 8 4 16 3.339 7.652"
         id="polygon128" />
      <polygon
         fill="#F1471D"
         points="32 0 28.869 7.234 27.999 16 32 8"
         id="polygon130" />
      <polygon
         fill="#F1471D"
         points="28.731 25.391 32.001 32 32.001 24 27.999 16"
         id="polygon132" />
      <polygon
         fill="#FAB20B"
         points="0 0 0 .001 4 16 13.426 14.19 16 4"
         id="polygon134" />
      <path
         fill="#F47216"
         d="M32.0004,0 L32.0004,0.001 L32.0004,0 Z M16.0004,4 L17.2524,14.051 L27.9994,16 L32.0004,0.001 L16.0004,4 Z"
         id="path136" />
      <polygon
         fill="#F25C19"
         points="17.808 17.392 16 28 32 32 32 31.999 27.999 16.001"
         id="polygon138" />
      <path
         fill="#F89C0E"
         d="M0.0002,31.9985 L16.0002,27.9995 L13.6352,18.1555 L3.9992,16.0005 L0.0002,31.9985 Z M0.0002,31.9985 L0.0002,31.9995 L0.0002,31.9985 Z"
         id="path140" />
      <polyline
         fill="#F68712"
         points="16 4 4 16 16 28 27.999 16 16 4"
         id="polyline142" />
      <path
         style="fill:none;stroke:#000000;stroke-width:0.2;stroke-linecap:butt;stroke-linejoin:miter;stroke-opacity:1;opacity:1;stroke-miterlimit:4;stroke-dasharray:none"
         d="M 16,4 4,16"
         id="path154" />
      <path
         style="fill:none;stroke:#000000;stroke-width:0.2;stroke-linecap:butt;stroke-linejoin:miter;stroke-opacity:1;stroke-miterlimit:4;stroke-dasharray:none"
         d="M 16.0004,4 27.999,16"
         id="path979" />
      <path
         style="fill:none;stroke:#000000;stroke-width:0.2;stroke-linecap:butt;stroke-linejoin:miter;stroke-opacity:1;stroke-miterlimit:4;stroke-dasharray:none"
         d="M 27.999,16.001 16,28"
         id="path981" />
      <path
         style="fill:none;stroke:#000000;stroke-width:0.2;stroke-linecap:butt;stroke-linejoin:miter;stroke-opacity:1;stroke-miterlimit:4;stroke-dasharray:none"
         d="M 3.9992,16.0005 15.9984,27.9999"
         id="path983" />
      <path
         style="fill:none;stroke:#000000;stroke-width:0.2;stroke-linecap:butt;stroke-linejoin:miter;stroke-opacity:1;stroke-miterlimit:4;stroke-dasharray:none"
         d="M 16,4 32.0004,0.001"
         id="path985" />
      <path
         style="fill:none;stroke:#000000;stroke-width:0.2;stroke-linecap:butt;stroke-linejoin:miter;stroke-opacity:1;stroke-miterlimit:4;stroke-dasharray:none"
         d="M 27.9994,16 32.0004,0.001"
         id="path987" />
      <path
         style="fill:none;stroke:#000000;stroke-width:0.2;stroke-linecap:butt;stroke-linejoin:miter;stroke-opacity:1;stroke-miterlimit:4;stroke-dasharray:none"
         d="M 16,4 0,0"
         id="path989" />
      <path
         style="fill:none;stroke:#000000;stroke-width:0.2;stroke-linecap:butt;stroke-linejoin:miter;stroke-opacity:1;stroke-miterlimit:4;stroke-dasharray:none"
         d="M 3.9992,16.0005 0,0.001"
         id="path991" />
      <path
         style="fill:none;stroke:#000000;stroke-width:0.2;stroke-linecap:butt;stroke-linejoin:miter;stroke-opacity:1;stroke-miterlimit:4;stroke-dasharray:none"
         d="m 4e-4,31.9999 15.998,-4"
         id="path993" />
      <path
         style="fill:none;stroke:#000000;stroke-width:0.2;stroke-linecap:butt;stroke-linejoin:miter;stroke-opacity:1;stroke-miterlimit:4;stroke-dasharray:none"
         d="M 3.9992,16.0005 4e-4,31.9999"
         id="path995" />
      <path
         style="fill:none;stroke:#000000;stroke-width:0.2;stroke-linecap:butt;stroke-linejoin:miter;stroke-opacity:1;stroke-miterlimit:4;stroke-dasharray:none"
         d="M 27.999,16.001 32.001,32"
         id="path997" />
      <path
         style="fill:none;stroke:#000000;stroke-width:0.2;stroke-linecap:butt;stroke-linejoin:miter;stroke-opacity:1;stroke-miterlimit:4;stroke-dasharray:none"
         d="M 16.0022,27.9999 32,31.999"
         id="path999" />
      <path
         style="fill:none;stroke:#000000;stroke-width:0.2;stroke-linecap:butt;stroke-linejoin:miter;stroke-opacity:1;stroke-miterlimit:4;stroke-dasharray:none"
         d="M 16,4 8.0003,0"
         id="path1001" />
      <path
         style="fill:none;stroke:#000000;stroke-width:0.2;stroke-linecap:butt;stroke-linejoin:miter;stroke-opacity:1;stroke-miterlimit:4;stroke-dasharray:none"
         d="m 3e-4,0 h 8"
         id="path1003" />
      <path
         style="fill:none;stroke:#000000;stroke-width:0.2;stroke-linecap:butt;stroke-linejoin:miter;stroke-opacity:1;stroke-miterlimit:4;stroke-dasharray:none"
         d="M 16,4 24.0003,0"
         id="path1005" />
      <path
         style="fill:none;stroke:#000000;stroke-width:0.2;stroke-linecap:butt;stroke-linejoin:miter;stroke-opacity:1;stroke-miterlimit:4;stroke-dasharray:none"
         d="M 32,0 H 24.0003"
         id="path1007" />
      <path
         style="fill:none;stroke:#000000;stroke-width:0.2;stroke-linecap:butt;stroke-linejoin:miter;stroke-opacity:1;stroke-miterlimit:4;stroke-dasharray:none"
         d="m 32,8 4e-4,-7.999"
         id="path1009" />
      <path
         style="fill:none;stroke:#000000;stroke-width:0.2;stroke-linecap:butt;stroke-linejoin:miter;stroke-opacity:1;stroke-miterlimit:4;stroke-dasharray:none"
         d="M 27.9994,16 32,8"
         id="path1011" />
      <path
         style="fill:none;stroke:#000000;stroke-width:0.2;stroke-linecap:butt;stroke-linejoin:miter;stroke-opacity:1;stroke-miterlimit:4;stroke-dasharray:none"
         d="M 32.001,24 27.9994,16"
         id="path1013" />
      <path
         style="fill:none;stroke:#000000;stroke-width:0.2;stroke-linecap:butt;stroke-linejoin:miter;stroke-opacity:1;stroke-miterlimit:4;stroke-dasharray:none"
         d="M 32,31.999 32.001,24"
         id="path1015" />
      <path
         style="fill:none;stroke:#000000;stroke-width:0.2;stroke-linecap:butt;stroke-linejoin:miter;stroke-opacity:1;stroke-miterlimit:4;stroke-dasharray:none"
         d="M 24.0002,31.9999 32,32"
         id="path1017" />
      <path
         style="fill:none;stroke:#000000;stroke-width:0.2;stroke-linecap:butt;stroke-linejoin:miter;stroke-opacity:1;stroke-miterlimit:4;stroke-dasharray:none"
         d="m 16.0022,27.9999 7.998,4"
         id="path1019" />
      <path
         style="fill:none;stroke:#000000;stroke-width:0.2;stroke-linecap:butt;stroke-linejoin:miter;stroke-opacity:1;stroke-miterlimit:4;stroke-dasharray:none"
         d="m 8.0004,31.9999 7.998,-4"
         id="path1021" />
      <path
         style="fill:none;stroke:#000000;stroke-width:0.2;stroke-linecap:butt;stroke-linejoin:miter;stroke-opacity:1;stroke-miterlimit:4;stroke-dasharray:none"
         d="m 4e-4,31.9999 h 8"
         id="path1023" />
      <path
         style="fill:#f68712;stroke:#000000;stroke-width:0.2;stroke-linecap:butt;stroke-linejoin:miter;stroke-opacity:1;stroke-miterlimit:4;stroke-dasharray:none;fill-opacity:1"
         d="M 3.9992,16.0005 0,23.999"
         id="path1025" />
      <path
         style="fill:none;stroke:#000000;stroke-width:0.2;stroke-linecap:butt;stroke-linejoin:miter;stroke-opacity:1;stroke-miterlimit:4;stroke-dasharray:none"
         d="m 0,31.999 v -8"
         id="path1027" />
      <path
         style="fill:none;stroke:#000000;stroke-width:0.2;stroke-linecap:butt;stroke-linejoin:miter;stroke-opacity:1;stroke-miterlimit:4;stroke-dasharray:none"
         d="M 3e-4,0 0,8"
         id="path1029" />
      <path
         style="fill:none;stroke:#000000;stroke-width:0.2;stroke-linecap:butt;stroke-linejoin:miter;stroke-opacity:1;stroke-miterlimit:4;stroke-dasharray:none"
         d="M 4,16 0,8"
         id="path1031" />
      <path
         style="opacity:1;fill:#f68712;fill-opacity:1;stroke-width:0.0148515;stroke-miterlimit:4;stroke-dasharray:none"
         d="M 6.2236484,11.967888 C 5.1814697,7.7952032 4.3294317,4.3672367 4.3302306,4.350185 c 0.0014,-0.02993 15.1352164,3.7373737 15.1755304,3.7776888 0.01094,0.010943 -2.54671,2.5864302 -5.683673,5.7233052 l -5.7035692,5.70341 z"
         id="path1033"
         transform="translate(-4,-4)" />
      <path
         style="opacity:1;fill:#f68712;fill-opacity:1;stroke-width:0.0148515;stroke-miterlimit:4;stroke-dasharray:none"
         d="m 4.3331685,35.625064 c 8.169e-4,-0.03067 0.8529274,-3.458633 1.893579,-7.617704 l 1.8920937,-7.561947 5.7136148,5.713776 5.713615,5.713775 -0.193827,0.05132 c -2.206297,0.58418 -15.0201625,3.741583 -15.0190755,3.700778 z"
         id="path1035"
         transform="translate(-4,-4)" />
      <path
         style="opacity:1;fill:#f68712;fill-opacity:1;stroke-width:0.0148515;stroke-miterlimit:4;stroke-dasharray:none"
         d="m 28.078892,33.785094 c -4.16057,-1.041143 -7.573645,-1.901959 -7.584611,-1.912925 -0.01097,-0.01097 2.546667,-2.586473 5.683631,-5.723348 l 5.703569,-5.70341 1.89994,7.600806 c 1.044967,4.180443 1.891435,7.607794 1.881041,7.616334 -0.01039,0.0085 -3.423,-0.836314 -7.58357,-1.877457 z"
         id="path1037"
         transform="translate(-4,-4)" />
      <path
         style="opacity:1;fill:#f68712;fill-opacity:1;stroke-width:0;stroke-miterlimit:4;stroke-dasharray:none"
         d="m 34.261285,28.13207 c -0.841937,-3.369915 -1.539019,-6.171674 -1.549072,-6.226129 -0.01005,-0.05446 0.684539,1.299147 1.543539,3.008007 l 1.561818,3.107017 -0.01275,3.119113 -0.01275,3.119113 z"
         id="path1039"
         transform="translate(-4,-4)" />
      <path
         style="opacity:1;fill:#f68712;fill-opacity:1;stroke-width:0.0148515;stroke-miterlimit:4;stroke-dasharray:none"
         d="m 11.831683,34.279159 c 3.403466,-0.854383 6.210396,-1.552868 6.237624,-1.55219 0.02723,6.78e-4 -1.342822,0.700522 -3.044555,1.555209 l -3.094059,1.553976 -3.1435643,-0.0018 -3.1435643,-0.0018 z"
         id="path1041"
         transform="translate(-4,-4)" />
      <path
         style="opacity:1;fill:#f68712;fill-opacity:1;stroke-width:0.0148515;stroke-miterlimit:4;stroke-dasharray:none"
         d="M 4.1913319,31.138614 4.1886019,27.99505 5.7178265,24.950495 C 6.5589,23.27599 7.2478291,21.939356 7.2487799,21.980198 7.2497308,22.021038 6.5628103,24.805693 5.72229,28.168317 l -1.5282186,6.113861 z"
         id="path1043"
         transform="translate(-4,-4)" />
      <path
         style="opacity:1;fill:#f68712;fill-opacity:1;stroke-width:0;stroke-miterlimit:4;stroke-dasharray:none"
         d="m 5.7053705,15.024871 -1.5222022,-3.044885 0.00255,-3.1310823 0.00255,-3.1310819 1.5333285,6.1349532 c 0.8433308,3.374224 1.5271764,6.153409 1.519657,6.175967 -0.00752,0.02256 -0.6986627,-1.329184 -1.5358739,-3.003871 z"
         id="path1045"
         transform="translate(-4,-4)" />
      <path
         style="opacity:1;fill:#f68712;fill-opacity:1;stroke-width:0.0148515;stroke-miterlimit:4;stroke-dasharray:none"
         d="m 11.806931,5.7178218 -6.1633666,-1.5503649 3.1435643,-0.00181 3.1435643,-0.00181 3.094059,1.5539759 c 1.701733,0.8546868 3.060644,1.5531634 3.019802,1.5521704 -0.04084,-9.931e-4 -2.847772,-0.6994697 -6.237623,-1.5521704 z"
         id="path1047"
         transform="translate(-4,-4)" />
      <path
         style="opacity:1;fill:#f68712;fill-opacity:1;stroke-width:0;stroke-miterlimit:4;stroke-dasharray:none"
         d="m 11.831683,5.7014263 -5.841584,-1.468753 2.982103,-0.012763 2.982103,-0.012763 2.364432,1.1846148 c 2.720352,1.3629362 3.533348,1.7852915 3.428788,1.7812714 -0.04084,-0.00157 -2.702971,-0.663794 -5.915842,-1.4716072 z"
         id="path1049"
         transform="translate(-4,-4)" />
      <path
         style="opacity:1;fill:#f68712;fill-opacity:1;stroke-width:0;stroke-miterlimit:4;stroke-dasharray:none"
         d="m 4.2373683,30.945537 -0.00469,-2.990107 1.4469595,-2.867034 c 0.7958278,-1.576869 1.4536008,-2.847111 1.4617178,-2.82276 0.00812,0.02435 -0.6409019,2.660065 -1.4422645,5.857141 l -1.4570227,5.812867 z"
         id="path1053"
         transform="translate(-4,-4)" />
      <path
         style="opacity:1;fill:#f68712;fill-opacity:1;stroke-width:0.0148515;stroke-miterlimit:4;stroke-dasharray:none"
         d="m 26.167544,13.840811 -5.713615,-5.7137754 0.193827,-0.051321 c 2.206297,-0.5841805 15.020162,-3.7415834 15.019076,-3.700778 -8.17e-4,0.030666 -0.852928,3.458633 -1.89358,7.6177034 l -1.892093,7.561947 z"
         id="path1057"
         transform="translate(-4,-4)" />
      <path
         style="opacity:1;fill:#f68712;fill-opacity:1;stroke-width:0;stroke-miterlimit:4;stroke-dasharray:none"
         d="m 24.975248,5.7178218 3.094059,-1.5539759 3.143564,0.00179 3.143565,0.00179 -6.188119,1.5534226 c -3.403466,0.8543825 -6.210396,1.5528678 -6.237624,1.5521896 -0.02723,-6.782e-4 1.342822,-0.7005222 3.044555,-1.555209 z"
         id="path1059"
         transform="translate(-4,-4)" />
      <path
         style="opacity:1;fill:#f68712;fill-opacity:1;stroke-width:0;stroke-miterlimit:4;stroke-dasharray:none"
         d="m 32.702217,18.143564 c -6.78e-4,-0.02723 0.697807,-2.834158 1.552189,-6.237623 l 1.553423,-6.1881192 0.0018,3.1435643 0.0018,3.1435639 -1.553976,3.09406 c -0.854687,1.701733 -1.554531,3.071782 -1.555209,3.044554 z"
         id="path1061"
         transform="translate(-4,-4)" />
      <path
         style="opacity:1;fill:#f68712;fill-opacity:1;stroke-width:0.0015625;stroke-miterlimit:4;stroke-dasharray:none"
         d="M 24.068353,11.917263 20.289055,8.1379596 24.37695,7.1162473 c 2.248341,-0.5619417 4.09053,-1.0216067 4.093753,-1.0214777 0.0032,1.29e-4 0.0059,0.00469 0.0059,0.010127 0,0.0066 -0.17749,0.053711 -0.533204,0.1415274 -1.85869,0.4588641 -5.401011,1.3411032 -5.958984,1.4841257 -0.09238,0.02368 -0.294531,0.075206 -0.449219,0.1145014 -0.318695,0.080959 -1.056634,0.2719818 -1.073852,0.277977 -0.0074,0.00258 1.300494,1.3158008 3.773435,3.7887459 l 3.784786,3.784793 h -0.08594 -0.08594 z"
         id="path1063"
         transform="translate(-4,-4)" />
      <path
         style="opacity:1;fill:#f68712;fill-opacity:1;stroke-width:0.0015625;stroke-miterlimit:4;stroke-dasharray:none"
         d="m 11.985026,15.693056 c 0.0018,-0.0019 1.013997,-1.015324 2.249349,-2.251984 2.686389,-2.689235 3.89108,-3.8994573 4.773588,-4.7955042 0.408323,-0.4145871 0.501807,-0.5126753 0.4949,-0.5192766 C 19.483808,8.1080757 18.076538,7.7515814 14.177734,6.7773116 12.165448,6.2744626 11.53125,6.1132511 11.53125,6.1045824 c 0,-0.00697 0.0053,-0.010054 0.01367,-0.00793 0.0075,0.00191 1.847951,0.4619812 4.089847,1.0223888 l 4.076176,1.018923 -3.779298,3.7793038 -3.779297,3.779304 h -0.08529 c -0.04691,0 -0.08382,-0.0016 -0.08203,-0.0035 z"
         id="path1065"
         transform="translate(-4,-4)" />
      <path
         style="opacity:1;fill:#f68712;fill-opacity:1;stroke-width:0.0015625;stroke-miterlimit:4;stroke-dasharray:none"
         d="m 24.398438,32.888663 c -2.236524,-0.559581 -4.076722,-1.020038 -4.08933,-1.023237 -0.02228,-0.0057 0.06469,-0.09343 3.093746,-3.122494 l 3.11667,-3.116678 h 0.08913 0.08914 l -2.089132,2.091804 c -1.998168,2.000723 -3.577581,3.590758 -3.947251,3.973798 -0.165034,0.171003 -0.17179,0.179199 -0.153354,0.186031 0.06368,0.0236 2.469968,0.631224 6.786823,1.713773 0.781178,0.195898 1.181614,0.299622 1.18164,0.306079 0,0.0054 -0.0026,0.0094 -0.0058,0.0091 -0.0032,-3.91e-4 -1.835742,-0.45855 -4.072265,-1.018131 z"
         id="path1067"
         transform="translate(-4,-4)" />
      <path
         style="opacity:1;fill:#f68712;fill-opacity:1;stroke-width:0.0015625;stroke-miterlimit:4;stroke-dasharray:none"
         d="m 11.53125,33.896839 c 0,-0.0064 0.0062,-0.01357 0.01367,-0.01584 0.0075,-0.0023 0.44082,-0.109532 0.96289,-0.23837 2.285242,-0.563961 5.153152,-1.280502 6.242188,-1.559598 0.249089,-0.06384 0.760284,-0.196854 0.784284,-0.204079 0.01168,-0.0035 -0.636659,-0.655852 -3.109372,-3.128571 L 13.300787,25.62625 h 0.08984 0.08984 l 3.116311,3.116318 c 2.479305,2.479311 3.113295,3.117256 3.101559,3.120906 -0.0081,0.0025 -1.842877,0.461905 -4.077252,1.020849 -2.234375,0.558944 -4.068653,1.018054 -4.076172,1.020245 -0.0087,0.0025 -0.01367,-2.63e-4 -0.01367,-0.0077 z"
         id="path1069"
         transform="translate(-4,-4)" />
      <path
         style="opacity:1;fill:#f68712;fill-opacity:1;stroke-width:0;stroke-miterlimit:4;stroke-dasharray:none"
         d="m 11.738281,35.837439 0.210938,-0.0042 0.441406,-0.223616 c 0.242773,-0.122989 0.944141,-0.475873 1.558594,-0.784186 2.41765,-1.213099 3.949404,-1.991158 4.101562,-2.0834 0.01843,-0.01117 0.02021,-0.01421 0.0084,-0.01424 -0.02794,-5.4e-5 -1.448456,0.352584 -5.186491,1.28753 -1.050939,0.262858 -1.341688,0.333035 -1.33983,0.323387 0.0018,-0.0096 0.773209,-0.205086 3.447671,-0.873897 1.894915,-0.473868 3.448815,-0.861595 3.453112,-0.861616 0.0043,-2.2e-5 -1.449144,0.729364 -3.229868,1.620857 l -3.23768,1.620897 -0.219351,-0.0017 -0.219351,-0.0017 z"
         id="path1071"
         transform="translate(-4,-4)" />
      <path
         style="opacity:1;fill:#f68712;fill-opacity:1;stroke-width:0;stroke-miterlimit:4;stroke-dasharray:none"
         d="m 4.1586954,31.274692 c -5.679e-4,-3.184608 -2.953e-4,-3.246612 0.014391,-3.273438 0.014773,-0.02698 0.014974,0.01428 0.015298,3.128516 1.898e-4,1.829852 0.00323,3.15274 0.00724,3.148437 0.00506,-0.0054 1.7360776,-6.928216 2.1917095,-8.76522 0.035371,-0.142606 0.051673,-0.195921 0.060421,-0.197606 0.00915,-0.0018 -0.2586682,1.081323 -1.1349588,4.58983 -0.630817,2.525675 -1.1484206,4.59741 -1.1502302,4.603856 -0.00181,0.0064 -0.00355,-1.449024 -0.00387,-3.234375 z"
         id="path1073"
         transform="translate(-4,-4)" />
      <path
         style="opacity:1;fill:#f68712;fill-opacity:1;stroke-width:0;stroke-miterlimit:4;stroke-dasharray:none"
         d="m 5.1735194,26.00477 c 8.057e-4,-0.01382 2.2174501,-4.437202 2.2176492,-4.425391 1.087e-4,0.0064 -0.2097552,0.850956 -0.4663641,1.87669 -0.3583264,1.432326 -0.4688785,1.863534 -0.4765488,1.858777 -0.0077,-0.0048 0.038389,-0.201634 0.2015696,-0.86089 0.3730655,-1.507197 0.6013863,-2.444441 0.6013863,-2.468658 0,-0.03045 -0.038959,0.03688 -0.2126696,0.367519 -0.2961186,0.563629 -0.6450643,1.248121 -1.3202713,2.589843 -0.2919178,0.580079 -0.5340052,1.058028 -0.5379719,1.06211 -0.00455,0.0047 -0.00705,0.0047 -0.00678,0 z"
         id="path1075"
         transform="translate(-4,-4)" />
      <path
         style="opacity:1;fill:#f68712;fill-opacity:1;stroke-width:0.0015625;stroke-miterlimit:4;stroke-dasharray:none"
         d="m 7.2763365,16.265837 c -0.4738691,-1.895496 -0.8597059,-3.448231 -0.857415,-3.450522 0.00229,-0.0023 0.00635,-0.002 0.00901,6.85e-4 0.00267,0.0027 0.3824455,1.515851 0.8439515,3.36263 0.461506,1.846779 0.8409322,3.362888 0.8431694,3.36913 0.00268,0.0075 0.662781,-0.647359 1.9356326,-1.920203 l 1.931565,-1.931553 0.08373,0.0022 0.08373,0.0022 -2.0059,2.00586 -2.0059002,2.005861 z"
         id="path1077"
         transform="translate(-4,-4)" />
      <path
         style="opacity:1;fill:#f68712;fill-opacity:1;stroke-width:0;stroke-miterlimit:4;stroke-dasharray:none"
         d="m 5.983633,15.622354 c -0.7723614,-1.54473 -1.4009333,-2.8086 -1.3968264,-2.8086 0.00411,0 0.3785082,0.740918 0.8320028,1.646485 1.1597776,2.315916 1.7754683,3.524653 1.8174041,3.567968 0.011905,0.0123 0.00879,-0.0069 -0.024565,-0.151246 -0.098904,-0.428083 -0.7515455,-3.081317 -1.1229369,-4.56516 -0.111618,-0.445954 -0.1231373,-0.498047 -0.1101332,-0.498047 0.00866,0 0.016145,0.0071 0.018543,0.01758 0.00221,0.0097 0.3170446,1.270543 0.6996307,2.801945 0.3825862,1.531402 0.694613,2.787362 0.6933929,2.791022 -0.00122,0.0037 -0.6341503,-1.257215 -1.4065116,-2.801945 z"
         id="path1079"
         transform="translate(-4,-4)" />
      <path
         style="opacity:1;fill:#f68712;fill-opacity:1;stroke-width:0;stroke-miterlimit:4;stroke-dasharray:none"
         d="m 4.1581719,7.9328947 7.103e-4,-2.4511719 0.6128333,2.4483054 c 0.3370582,1.346568 0.611109,2.4500298 0.6090016,2.4521368 -0.00211,0.0021 -0.00838,0.0021 -0.013934,-1.03e-4 C 5.3605594,10.379638 5.1332071,9.483846 4.7746676,8.0490656 4.4545606,6.7680818 4.1900098,5.7200041 4.186777,5.7200041 c -0.00323,0 -0.00588,1.0494141 -0.00588,2.3320313 0,2.0677086 -0.00133,2.3320316 -0.011719,2.3320316 -0.010393,0 -0.011638,-0.277245 -0.011008,-2.4511723 z"
         id="path1081"
         transform="translate(-4,-4)" />
      <path
         style="opacity:1;fill:#f68712;fill-opacity:1;stroke-width:0;stroke-miterlimit:4;stroke-dasharray:none"
         d="M 5.7987469,10.35477 C 5.7492259,10.167677 4.2827725,4.2874015 4.2850639,4.2851101 c 0.00172,-0.00172 1.630453,0.4035771 3.6194042,0.9006627 2.6573169,0.6641261 3.6199809,0.9076208 3.6302509,0.9182304 0.0077,0.00794 0.0115,0.014438 0.0085,0.014438 -0.003,0 -0.466352,-0.1145084 -1.029601,-0.2544632 C 7.2255573,5.0469778 4.867546,4.4675728 4.3469148,4.3487193 c -0.010092,-0.0023 -0.017578,-3.151e-4 -0.017578,0.00467 0,0.01146 0.1159848,0.4847694 0.328189,1.339271 0.09497,0.3824219 0.2144676,0.8640626 0.2655515,1.0703126 0.051084,0.20625 0.2741323,1.1023356 0.4956634,1.9913013 0.221531,0.8889657 0.4027836,1.6193368 0.4027836,1.6230468 0,0.01886 -0.016014,0.003 -0.022777,-0.02255 z"
         id="path1083"
         transform="translate(-4,-4)" />
      <path
         style="opacity:1;fill:#f68712;fill-opacity:1;stroke-width:0.003125;stroke-miterlimit:4;stroke-dasharray:none"
         d="M 5.8658394,15.483553 4.1119397,11.975712 V 8.6241587 5.2726054 h 0.046273 c 0.040297,0 0.048276,0.00757 0.061782,0.058594 C 4.3193887,5.7067032 7.6274876,18.968149 7.624214,18.97797 7.621754,18.98537 6.8304845,17.412866 5.8658394,15.483553 Z m 0.8805207,0.319573 C 5.9482778,12.596532 6.0098076,12.838002 5.9828222,12.806672 5.9544934,12.773783 5.3593484,10.393332 5.3766878,10.382267 5.3836674,10.377812 5.1126798,9.2702616 4.7744931,7.9210429 l -0.6148849,-2.453125 0.00585,3.2506947 0.00585,3.2506944 0.2110674,0.428993 c 0.1160871,0.235946 0.2971819,0.60829 0.4024331,0.82743 0.321306,0.668983 2.5980122,5.210805 2.6036193,5.193984 0.00289,-0.0087 -0.2860405,-1.18613 -0.6420643,-2.616588 z"
         id="path1089"
         transform="translate(-4,-4)" />
      <path
         style="opacity:1;fill:#f68712;fill-opacity:1;stroke-width:0.003125;stroke-miterlimit:4;stroke-dasharray:none"
         d="M 6.2427206,12.530145 4.428353,5.2726054 l 0.048825,3.675e-4 0.048825,3.675e-4 0.6328125,2.5412647 c 0.3480469,1.3976954 0.6405106,2.5490619 0.6499194,2.5585919 0.019337,0.01959 0.5995859,2.341764 0.609307,2.438471 0.00346,0.03438 0.390405,1.601291 0.8598879,3.482035 l 0.8536052,3.419535 -0.037223,0.03722 -0.037223,0.03722 z"
         id="path1091"
         transform="translate(-4,-4)" />
      <path
         style="opacity:1;fill:#f68712;fill-opacity:1;stroke-width:0.003125;stroke-miterlimit:4;stroke-dasharray:none"
         d="m 4.1142252,31.546043 -5.556e-4,-3.53125 1.7560826,-3.507813 c 0.9658454,-1.929297 1.7562595,-3.497265 1.7564756,-3.484375 2.162e-4,0.01289 -0.7897709,3.180469 -1.755527,7.039063 l -1.75592,7.015625 z m 1.1286476,-1.337222 c 0.587658,-2.358278 1.1140817,-4.470591 1.1698306,-4.694028 0.055749,-0.223438 0.2993335,-1.193244 0.5412988,-2.155126 0.2419654,-0.961881 0.4374834,-1.756236 0.4344845,-1.765233 -0.00613,-0.01839 -1.7420569,3.424122 -2.0320367,4.029734 -0.2700333,0.563955 -1.1689251,2.358435 -1.1844677,2.364583 -0.00724,0.0029 -0.013168,1.47181 -0.013168,3.264323 0,1.792513 0.00351,3.255607 0.00779,3.25132 0.00429,-0.0043 0.4886057,-1.937295 1.0762636,-4.295573 z"
         id="path1095"
         transform="translate(-4,-4)" />
      <path
         style="opacity:1;fill:#f68712;fill-opacity:1;stroke-width:0.003125;stroke-miterlimit:4;stroke-dasharray:none"
         d="m 11.932252,34.131032 c 3.875781,-0.970053 7.053906,-1.763556 7.0625,-1.76334 0.0086,2.16e-4 -1.569922,0.794146 -3.507812,1.764288 l -3.523438,1.763895 -3.5390623,-5.55e-4 -3.5390625,-5.56e-4 z m 3.256134,0.10834 c 1.766939,-0.886247 3.219647,-1.618288 3.228241,-1.626756 0.01031,-0.01016 0.005,-0.01229 -0.01563,-0.0063 -0.01719,0.005 -0.808203,0.202132 -1.757812,0.43802 -2.597254,0.645171 -5.064433,1.269899 -5.117188,1.295751 -0.02578,0.01263 -1.360147,0.352415 -2.965257,0.755071 l -2.9183823,0.7321 2.9652573,0.0079 c 1.630891,0.0043 3.055908,0.0096 3.166703,0.01172 l 0.201446,0.0038 z"
         id="path1097"
         transform="translate(-4,-4)" />
      <path
         style="opacity:1;fill:#f68712;fill-opacity:1;stroke-width:0.003125;stroke-miterlimit:4;stroke-dasharray:none"
         d="m 28.018352,33.894021 -7.809445,-1.953866 0.04182,-0.04365 c 0.03136,-0.03274 0.04818,-0.04001 0.06726,-0.02908 0.04031,0.0231 8.098275,2.033823 8.150435,2.033797 0.02578,-1.2e-5 0.623438,0.143797 1.328125,0.319576 1.567016,0.390882 5.1201,1.270726 5.543251,1.372666 0.169881,0.04093 0.313056,0.07023 0.318167,0.06512 0.01128,-0.01128 0.018,0.01792 -0.230943,-1.003166 -0.32682,-1.340493 -0.717609,-2.9132 -1.866512,-7.511675 -0.596351,-2.386891 -1.084275,-4.346852 -1.084275,-4.355469 0,-0.0086 0.02373,-0.01567 0.05273,-0.01567 h 0.05274 l 1.627544,6.511719 c 0.895148,3.581445 1.631267,6.524024 1.635818,6.539063 0.0046,0.01504 0.0025,0.0267 -0.0045,0.02592 -0.007,-7.83e-4 -3.527022,-0.880661 -7.822217,-1.955287 z"
         id="path1099"
         transform="translate(-4,-4)" />
      <path
         style="opacity:1;fill:#f68712;fill-opacity:1;stroke-width:0.003125;stroke-miterlimit:4;stroke-dasharray:none"
         d="m 34.121582,28.041692 c -0.970133,-3.878174 -1.760945,-7.054159 -1.75736,-7.057744 0.0036,-0.0036 0.799482,1.580404 1.76866,3.519976 l 1.762141,3.526494 -0.0048,3.53125 -0.0048,3.53125 z m 1.693566,1.848101 0.0045,-1.875 -0.500309,-1 c -0.668807,-1.336788 -1.964662,-3.901524 -2.248261,-4.449725 -0.279419,-0.54012 -0.350828,-0.671485 -0.36002,-0.662293 -0.0084,0.0084 2.999263,12.090468 3.061761,12.299518 0.022,0.07358 0.03511,-1.260676 0.04237,-4.3125 z"
         id="path1101"
         transform="translate(-4,-4)" />
      <path
         style="opacity:1;fill:#f68712;fill-opacity:1;stroke-width:0.003125;stroke-miterlimit:4;stroke-dasharray:none"
         d="m 29.236641,22.921425 c 1.482193,-1.482212 2.699367,-2.689829 2.704831,-2.683594 0.0055,0.0062 0.148296,0.566806 0.317403,1.245712 0.169108,0.678906 0.31119,1.24668 0.315737,1.261719 0.0068,0.02243 -0.0016,0.02734 -0.04674,0.02734 -0.05025,0 -0.05641,-0.0051 -0.07127,-0.05859 -0.0089,-0.03223 -0.140543,-0.554297 -0.29244,-1.160157 -0.151898,-0.605859 -0.278792,-1.104781 -0.281989,-1.108715 -0.0032,-0.0039 -1.17096,1.15798 -2.59503,2.582031 l -2.589219,2.589184 h -0.07809 -0.07809 z"
         id="path1103"
         transform="translate(-4,-4)" />
      <path
         style="opacity:1;fill:#f68712;fill-opacity:1;stroke-width:0.003125;stroke-miterlimit:4;stroke-dasharray:none"
         d="m 32.364234,18.999168 c 2.65e-4,-0.01719 0.701243,-2.829688 1.557729,-6.25 l 1.557248,-6.2187501 0.05859,-0.00485 c 0.03223,-0.00267 0.05859,-0.00221 0.05859,0.00101 0,0.00322 -0.299273,1.1972037 -0.665051,2.6532869 -0.751763,2.9926042 -2.138822,8.5452492 -2.198194,8.7997682 -0.02155,0.09238 -0.0347,0.167968 -0.02923,0.167968 0.02102,0 1.209783,-2.338234 2.472474,-4.863243 l 0.638747,-1.277306 V 9.2648305 6.5226054 h 0.03906 0.03906 l -8.65e-4,2.7304687 -8.66e-4,2.7304689 -1.763894,3.523437 c -0.970142,1.937891 -1.763678,3.509375 -1.763414,3.492188 z"
         id="path1105"
         transform="translate(-4,-4)" />
      <path
         style="opacity:1;fill:#f68712;fill-opacity:1;stroke-width:0.003125;stroke-miterlimit:4;stroke-dasharray:none"
         d="M 29.892894,17.733163 27.854256,15.69448 h 0.07808 0.07808 l 1.932978,1.932931 c 1.063138,1.063112 1.935758,1.929714 1.939156,1.925782 0.0034,-0.0039 0.731771,-2.911056 1.618606,-6.460275 0.886835,-3.5492189 1.619379,-6.4794923 1.627875,-6.5117189 0.01409,-0.053448 0.0202,-0.058594 0.06953,-0.058594 0.02975,0 0.05409,0.00352 0.05409,0.00783 0,0.023666 -3.302888,13.2206139 -3.311179,13.2300749 -0.0055,0.0062 -0.927324,-0.906068 -2.048575,-2.027344 z"
         id="path1107"
         transform="translate(-4,-4)" />
      <path
         style="opacity:1;fill:#f68712;fill-opacity:1;stroke-width:0.003125;stroke-miterlimit:4;stroke-dasharray:none"
         d="m 35.487483,6.5118299 c 2.52e-4,-0.00696 0.09102,-0.3712558 0.201704,-0.809537 l 0.201244,-0.796875 0.0014,0.8085937 0.0014,0.8085938 h -0.03906 -0.03906 V 6.1215637 c 0,-0.2205729 -0.0043,-0.3967812 -0.0095,-0.391574 -0.0052,0.00521 -0.05307,0.1839182 -0.106356,0.3971354 l -0.09689,0.3876678 -0.05771,0.00485 c -0.03174,0.00267 -0.0575,-8.484e-4 -0.05725,-0.00781 z"
         id="path1109"
         transform="translate(-4,-4)" />
      <path
         style="opacity:1;fill:#f68712;fill-opacity:1;stroke-width:0.003125;stroke-miterlimit:4;stroke-dasharray:none"
         d="m 20.254359,8.0947385 -0.0344,-0.036617 7.813219,-1.9533077 c 4.297271,-1.0743193 7.813011,-1.9489119 7.812756,-1.9435392 -2.54e-4,0.00537 -0.13249,0.5371123 -0.293855,1.1816436 l -0.293392,1.171875 -0.05909,0.00493 c -0.05094,0.00425 -0.0579,0.00102 -0.05047,-0.023437 0.02042,-0.067228 0.503701,-2.0395518 0.512324,-2.090869 0.0043,-0.025293 -0.0022,-0.030302 -0.03381,-0.026278 -0.121111,0.015416 -2.886653,0.6832422 -5.640625,1.3621033 -1.532951,0.3778766 -1.515625,0.3737655 -1.515625,0.3596173 0,-0.00653 -1.826367,0.4443471 -4.058593,1.0019486 -2.232227,0.5576016 -4.073321,1.0171343 -4.09132,1.0211838 -0.021,0.00472 -0.04505,-0.00576 -0.06713,-0.029255 z"
         id="path1111"
         transform="translate(-4,-4)" />
      <path
         style="opacity:1;fill:#f68712;fill-opacity:1;stroke-width:0.003125;stroke-miterlimit:4;stroke-dasharray:none"
         d="m 24.518273,5.8663554 3.523438,-1.7638951 3.546875,5.556e-4 3.546875,5.556e-4 -7.046875,1.7637325 c -3.875781,0.9700529 -7.057422,1.7635557 -7.070313,1.7633395 -0.01289,-2.163e-4 1.56211,-0.7941458 3.5,-1.7642881 z m 3.622663,-0.1327997 c 3.382926,-0.8464774 6.164837,-1.5456109 6.182025,-1.5536301 0.01947,-0.00908 -1.156324,-0.014979 -3.118385,-0.015638 l -3.149635,-0.00106 -2.27224,1.1421072 c -2.062223,1.0365456 -3.553881,1.7938501 -3.780053,1.9191081 -0.06554,0.036297 -0.07722,0.047661 -0.04921,0.047876 0.0202,1.563e-4 2.804573,-0.6922892 6.1875,-1.5387665 z"
         id="path1113"
         transform="translate(-4,-4)" />
      <path
         style="opacity:1;fill:#f68712;fill-opacity:1;stroke-width:0.003125;stroke-miterlimit:4;stroke-dasharray:none"
         d="m 11.905023,5.8663554 -7.0390621,-1.7627806 3.546875,-5.572e-4 3.5468751,-5.573e-4 3.523437,1.7638951 c 1.937891,0.9701423 3.509375,1.7636442 3.492188,1.7633378 -0.01719,-3.066e-4 -3.198828,-0.7938085 -7.070313,-1.7633378 z m 6.132032,1.3917717 C 17.989383,7.2116296 16.749477,6.577728 14.148507,5.2701087 l -2.201829,-1.106954 -3.1575461,0.00394 -3.157546,0.00394 3.84375,0.9665681 c 2.1140621,0.5316125 4.7964841,1.2039891 5.9609371,1.4941702 1.164454,0.290181 2.215625,0.5524123 2.335938,0.582736 0.230671,0.058139 0.289706,0.06786 0.264844,0.04361 z"
         id="path1115"
         transform="translate(-4,-4)" />
      <path
         style="opacity:1;fill:#f68712;fill-opacity:1;stroke-width:0.003125;stroke-miterlimit:4;stroke-dasharray:none"
         d="M 6.7656384,14.104637 C 6.7398033,14.007534 5.2320857,7.9682532 5.0684295,7.3063333 4.9634322,6.8816638 4.9118458,6.6981035 4.9015667,6.7125833 c -0.010328,0.014549 -0.012011,0.00901 -0.0055,-0.018103 C 4.9084927,6.6427243 4.60646,5.4231584 4.5876706,5.4492186 c -0.00838,0.011628 -0.010373,0.00466 -0.00526,-0.018434 0.011831,-0.053432 -0.068943,-0.3842123 -0.087473,-0.3582118 -0.00976,0.01369 -0.01146,0.00757 -0.00521,-0.018717 0.012808,-0.053848 -0.1030044,-0.5264662 -0.1197765,-0.4887934 -0.00816,0.018339 -0.0099,0.011209 -0.00509,-0.02087 0.00402,-0.026799 0.00124,-0.068987 -0.00617,-0.09375 -0.01024,-0.034203 -0.014139,-0.037513 -0.01622,-0.013774 -0.00151,0.017188 -0.012515,-0.00391 -0.024463,-0.046875 -0.011947,-0.042969 -0.020108,-0.081958 -0.018134,-0.086644 0.00197,-0.00469 0.9065435,0.2164001 2.0101551,0.4913007 C 7.413641,5.0693507 8.3097278,5.2965587 8.3013333,5.2993569 8.2929433,5.3021569 7.9841244,5.2300559 7.6150791,5.139136 5.8077094,4.6938648 5.1008552,4.5224323 5.0888171,4.526445 c -0.00725,0.00242 0.1365144,0.041238 0.3194797,0.086269 4.3308049,1.0658874 9.9316432,2.4591242 12.3857672,3.0810215 0.751081,0.1903311 1.376631,0.3418243 1.39011,0.3366518 0.02487,-0.00954 0.502099,0.1013995 0.502099,0.1167226 0,0.00459 -1.352203,1.360528 -3.004896,3.0132051 l -3.004897,3.004866 -0.07251,-0.0049 -0.07252,-0.0049 1.908524,-1.914063 c 3.444114,-3.454107 4.059065,-4.0770416 4.058324,-4.1110124 -2.89e-4,-0.013252 -0.0072,-0.00955 -0.01763,0.00945 -0.02362,0.043023 -1.650847,1.6861337 -4.715688,4.7617194 l -1.257311,1.261718 h -3.36322 -3.36322 z M 19.466221,8.1098632 c -0.01145,-0.011413 -0.267674,-0.07349 -0.274629,-0.066534 -0.0037,0.00368 0.04811,0.020931 0.11509,0.038338 0.121513,0.031582 0.171857,0.040479 0.159539,0.028196 z M 4.8972109,4.4747153 c -0.094531,-0.02478 -0.1824218,-0.044568 -0.1953125,-0.043973 -0.032573,0.0015 0.2973852,0.088881 0.3359375,0.088962 0.017187,3.59e-5 -0.046094,-0.020209 -0.140625,-0.044989 z M 4.6003359,4.4047198 C 4.5573672,4.393007 4.4782656,4.3731758 4.4245547,4.3606504 c -0.096712,-0.022553 -0.097654,-0.022447 -0.097417,0.010997 1.89e-4,0.026674 0.00326,0.028988 0.014635,0.011013 0.012443,-0.019672 0.03201,-0.01831 0.144292,0.010041 0.1425741,0.035999 0.2397346,0.046218 0.1142712,0.012018 z"
         id="path1117"
         transform="translate(-4,-4)" />
      <path
         style="opacity:1;fill:#f68712;fill-opacity:1;stroke-width:0.003125;stroke-miterlimit:4;stroke-dasharray:none"
         d="M 15.639398,7.1143282 C 13.417914,6.5571426 11.579242,6.0980665 11.553461,6.094159 11.52768,6.0902515 11.046039,5.9701315 10.483148,5.8272255 8.8914481,5.4231269 4.3378938,4.2884725 4.3073672,4.2883448 c -0.015039,-6.3e-5 -0.027152,0.00164 -0.026917,0.00379 2.346e-4,0.00215 0.055649,0.2236328 0.1231424,0.4921875 L 4.5263081,5.2726054 H 4.4771616 4.4280152 L 4.2911096,4.7218241 C 4.2158115,4.4188944 4.1543884,4.166647 4.1546137,4.1612743 c 2.254e-4,-0.00537 3.5163586,0.8692199 7.8136293,1.9435392 l 7.813219,1.9533077 -0.03469,0.03693 c -0.01908,0.020311 -0.04226,0.035897 -0.0515,0.034636 -0.0092,-0.00126 -1.834386,-0.4581728 -4.055871,-1.0153584 z"
         id="path1119"
         transform="translate(-4,-4)" />
      <path
         style="opacity:1;fill:#f68712;fill-opacity:1;stroke-width:0.003125;stroke-miterlimit:4;stroke-dasharray:none"
         d="m 4.1122958,5.0968241 0.00142,-0.1757812 0.036893,0.140625 c 0.020291,0.077344 0.040882,0.1564453 0.045757,0.1757812 0.00773,0.030653 0.00282,0.035156 -0.038308,0.035156 h -0.047173 z"
         id="path1121"
         transform="translate(-4,-4)" />
    </g>
  </g>
</svg>
