<svg xmlns="http://www.w3.org/2000/svg" viewBox="0 0 16 16">
  <mask id="outline">
    <rect x="0" y="0" width="16" height="16" fill="white" />
    <rect x="9" y="9" width="7" height="7" fill="black" />
  </mask>
  <g fill="none" fill-rule="evenodd" mask="url(#outline)">
    <path fill="#62B543" fill-opacity=".6" d="M15,8 C15,11.866 11.866,15 8,15 C4.134,15 1,11.866 1,8 C1,4.134 4.134,1 8,1 C11.866,1 15,4.134 15,8"/>
    <polygon fill="#231F20" fill-rule="nonzero" points="8.6 10 8.6 6 10 6 10 5 6 5 6 6 7.4 6 7.4 10 6 10.007 6 11 10 11 10 10" opacity=".7"/>
  </g>
  <g>
    <rect x="11" y="11" width="4" height="4" fill="#f7941e" />
    <path d="M11,13 l-1,-1.5 l0,-1.5 l1.5,0 l1.5,1 Z" fill="#fdb813" />
    <path d="M11,13 l-1,1.5 l0,1.5 l1.5,0 l1.5,-1 Z" fill="#fdb813" />
    <path d="M15,13 l1,-1.5 l0,-1.5 l-1.5,0 l-1.5,1 Z" fill="#f58220" />
    <path d="M15,13 l1,1.5 l0,1.5 l-1.5,0 l-1.5,-1 Z" fill="#f58220" />
  </g>
</svg>
