<?xml version="1.0" encoding="UTF-8" standalone="no"?>
<svg
   xmlns:dc="http://purl.org/dc/elements/1.1/"
   xmlns:cc="http://creativecommons.org/ns#"
   xmlns:rdf="http://www.w3.org/1999/02/22-rdf-syntax-ns#"
   xmlns:svg="http://www.w3.org/2000/svg"
   xmlns="http://www.w3.org/2000/svg"
   xmlns:sodipodi="http://sodipodi.sourceforge.net/DTD/sodipodi-0.dtd"
   xmlns:inkscape="http://www.inkscape.org/namespaces/inkscape"
   id="Layer_1"
   data-name="Layer 1"
   viewBox="0 0 16 16"
   version="1.1"
   sodipodi:docname="method-haxe.svg"
   inkscape:version="0.92.0 r15299"
   inkscape:export-filename="F:\linux\sandbox\github\HaxeFoundation\intellij-haxe\resources\icons\method-haxe.png"
   inkscape:export-xdpi="96"
   inkscape:export-ydpi="96">
  <metadata
     id="metadata3744">
    <rdf:RDF>
      <cc:Work
         rdf:about="">
        <dc:format>image/svg+xml</dc:format>
        <dc:type
           rdf:resource="http://purl.org/dc/dcmitype/StillImage" />
        <dc:title>method</dc:title>
      </cc:Work>
    </rdf:RDF>
  </metadata>
  <defs
     id="defs3742" />
  <sodipodi:namedview
     pagecolor="#ffffff"
     bordercolor="#666666"
     borderopacity="1"
     objecttolerance="10"
     gridtolerance="10"
     guidetolerance="10"
     inkscape:pageopacity="0"
     inkscape:pageshadow="2"
     inkscape:window-width="1819"
     inkscape:window-height="1057"
     id="namedview3740"
     showgrid="false"
     inkscape:zoom="41.7193"
     inkscape:cx="4.2470698"
     inkscape:cy="8.8433545"
     inkscape:window-x="93"
     inkscape:window-y="-8"
     inkscape:window-maximized="1"
     inkscape:current-layer="layer3"
     showguides="true"
     inkscape:pagecheckerboard="true" />
  <title
     id="title3728">method</title>
  <g
     inkscape:groupmode="layer"
     id="layer4"
     inkscape:label="Logo shade" />
  <g
     inkscape:groupmode="layer"
     id="layer5"
     inkscape:label="Icon">
    <g
       style="opacity:0.5"
       id="g3733">
      <g
         data-name=" Group "
         id="_Group_">
        <circle
           style="fill:#f98b9e"
           id="circle3730"
           r="7"
           cy="7.99999"
           cx="8" />
      </g>
    </g>
    <path
       inkscape:connector-curvature="0"
       id="path3735"
       style="opacity:0.6;isolation:isolate;fill:#231f20"
       d="m 10.356398,11.83894 -0.0051,-2.7935798 a 1.6974,1.6974 0 0 0 -0.26856,-1.04232 0.97992,0.97992 0 0 0 -0.8286502,-0.34743 1.57461,1.57461 0 0 0 -0.66238,0.12562 1.10769,1.10769 0 0 0 -0.44565,0.36882 1.63819,1.63819 0 0 0 -0.253,0.604 3.85687,3.85687 0 0 0 -0.079,0.83118 l 0.00436,2.2537098 h -0.97779 l -0.00511,-2.7935598 a 1.71028,1.71028 0 0 0 -0.26589,-1.04232 0.97232,0.97232 0 0 0 -0.826,-0.34743 1.53106,1.53106 0 0 0 -0.68908,0.139 1.08739,1.08739 0 0 0 -0.44559,0.41159 1.91587,1.91587 0 0 0 -0.23954,0.66815 5.10521,5.10521 0 0 0 -0.0709,0.90869 l 0.03096,2.0558798 h -0.99929 l -7.1e-4,-4.9999998 h 1 l -0.07645,0.90757 h 0.05344 a 1.66916,1.66916 0 0 1 0.304,-0.39822 1.74285,1.74285 0 0 1 0.387,-0.28063 1.78253,1.78253 0 0 1 0.4486,-0.1657 2.1969,2.1969 0 0 1 0.48348,-0.05348 2.18147,2.18147 0 0 1 1.0663,0.23519 1.41565,1.41565 0 0 1 0.62881,0.73764 h 0.04273 a 1.72786,1.72786 0 0 1 0.33336,-0.433 1.91323,1.91323 0 0 1 0.427,-0.302 2.05956,2.05956 0 0 1 0.4887,-0.179 2.33471,2.33471 0 0 1 0.52355,-0.0588 1.829,1.829 0 0 1 1.4086002,0.51046 2.3559,2.3559 0 0 1 0.47507,1.633 l 0.0052,2.8469698 z" />
  </g>
  <g
     inkscape:groupmode="layer"
     id="layer3"
     inkscape:label="HaxeLogo">
    <g
       transform="matrix(0.1202577,0,0,0.1202577,-4.8637484,-7.7973454)"
       id="g3983"
       inkscape:export-xdpi="96"
       inkscape:export-ydpi="96">
      <g
         id="g4087">
        <rect
           transform="translate(-6.8749998e-7,1.2708334e-6)"
           id="rect3963"
           width="58.208332"
           height="58.208332"
           x="113.77083"
           y="66.812492"
           style="stroke-width:0.27718252" />
        <g
           transform="matrix(0.27669793,0,0,0.27670588,-1.4883681,-1.2128743)"
           id="Layer_1-0"
           inkscape:label="Logo">
          <g
             id="layer1_1_"
             transform="translate(408.10163,-793.97636)">
            <g
               id="g3332_1_"
               transform="matrix(0.24008588,0,0,0.24008588,-2.2890548,790.44159)">
              <path
                 style="fill:#fbc712"
                 inkscape:connector-curvature="0"
                 id="path24_1_"
                 d="m 482.8347,1207.9542 -200.813,-18.3507 -157.6319,-71.2595 h 179.2184 l 179.2266,89.5228" />
              <path
                 style="fill:#fbc712"
                 inkscape:connector-curvature="0"
                 id="path26_1_"
                 d="m 482.8347,1207.9542 212.8266,-24.6514 145.6346,-64.9589 H 662.0552 l -179.2204,89.5228" />
              <path
                 style="fill:#f6871f"
                 inkscape:connector-curvature="0"
                 id="path28_1_"
                 d="m 482.8347,1745.6257 179.2204,21.3342 179.2408,68.2698 H 662.0552 l -179.2204,-89.7058" />
              <path
                 style="fill:#f15e22"
                 inkscape:connector-curvature="0"
                 id="path30_1_"
                 d="m 482.8347,1745.6257 -179.2266,19.2639 -179.2184,70.3401 h 179.2184 l 179.2266,-89.7058" />
              <path
                 style="fill:#fcee23"
                 inkscape:connector-curvature="0"
                 id="path32_1_"
                 d="m 213.998,1476.7889 -26.4513,210.4268 -63.1569,148.014 v -179.2122 l 89.6082,-179.3303" />
              <path
                 style="fill:#fcee23"
                 inkscape:connector-curvature="0"
                 id="path34_1_"
                 d="M 213.998,1476.7889 193.8473,1284.0785 124.3898,1118.344 v 179.2205 l 89.6082,179.1228" />
              <path
                 style="fill:#f04923"
                 inkscape:connector-curvature="0"
                 id="path36_1_"
                 d="m 751.6715,1476.7889 25.8615,-194.8114 63.7487,-163.6335 v 179.2205 l -89.6102,179.1228" />
              <path
                 style="fill:#f04923"
                 inkscape:connector-curvature="0"
                 id="path38_1_"
                 d="m 751.6715,1476.7889 17.4824,197.8254 72.1279,160.6154 v -179.2122 l -89.6102,-179.3303" />
              <path
                 style="fill:#f8b218"
                 inkscape:connector-curvature="0"
                 id="path16_1_"
                 d="m 124.3898,1118.344 358.4449,89.6102 v 268.6842 H 213.998 l -89.6082,-358.1113" />
              <path
                 style="fill:#f89d1c"
                 inkscape:connector-curvature="0"
                 id="path22_1_"
                 d="m 124.3898,1835.2297 89.6082,-358.4408 268.8368,-0.1505 v 268.7839 l -358.4449,89.4414" />
              <path
                 style="fill:#f37321"
                 inkscape:connector-curvature="0"
                 id="path18_1_"
                 d="m 841.296,1118.344 -89.6245,358.4327 -268.8368,-0.1383 v -268.6985 l 358.4612,-89.4128" />
              <path
                 style="fill:#f15e22"
                 inkscape:connector-curvature="0"
                 id="path20_1_"
                 d="m 841.296,1835.2297 -358.4612,-89.604 v -268.9873 l 268.8368,0.1505 89.6245,358.0748" />
              <path
                 style="fill:#f6871f"
                 inkscape:connector-curvature="0"
                 id="path14_1_"
                 d="M 482.8347,1207.9542 213.998,1476.7889 482.8348,1745.6257 751.6716,1476.7767 482.8348,1207.8668" />
            </g>
          </g>
        </g>
      </g>
    </g>
  </g>
</svg>
