<?xml version="1.0" encoding="UTF-8" standalone="no"?>
<svg width="12"
   height="12"
   viewBox="0 0 12 12"
   version="1.1"
   id="svg332"
   xmlns="http://www.w3.org/2000/svg"
   xmlns:svg="http://www.w3.org/2000/svg">


  <g
     fill="none"
     fill-rule="evenodd"
     id="g63"
     transform="matrix(0.57142857,0,0,0.57142857,-0.57142857,1.4285714)">
    <path
       fill="#acda24"
       fill-opacity="0.6"
       d="m 15,8 c 0,3.866 -3.134,7 -7,7 C 4.134,15 1,11.866 1,8 1,4.134 4.134,1 8,1 c 3.866,0 7,3.134 7,7"
       id="path59" />
    <polygon
       fill="#231f20"
       fill-opacity="0.7"
       points="0.5,1 2.5,1 2.5,6 3.5,6 3.5,1 5.5,1 5.5,0 0.5,0 "
       transform="matrix(1.34995,0,0,1.34995,3.9253171,4.2643754)"
       id="polygon61" />
  </g>
  <g
     fill="none"
     fill-rule="evenodd"
     id="g330">
    <path
       fill="#6E6E6E"
       d="M10,9 L12,9 L9.5,12 L7,9 L9,9 L9,0 L10,0 L10,9 Z"
       id="path328" />
  </g>
</svg>
