<svg xmlns="http://www.w3.org/2000/svg" width="40" height="40" viewBox="0 0 40 40">
  <g fill="none" fill-rule="evenodd" transform="translate(4 4)">
    <path fill="#FBC707" d="M24.0003,0 L16.0003,4 L25.3213,3.199 L32.0003,0 L24.0003,0 Z M0.0003,0 L6.8863,2.991 L16.0003,4 L8.0003,0 L0.0003,0 Z"/>
    <path fill="#F68712" d="M16.0002,27.9999 L16.0022,27.9999 L16.0002,27.9989 L16.0002,27.9999 Z M24.0002,31.9999 L32.0002,31.9999 L24.6952,28.3119 L16.0022,27.9999 L24.0002,31.9999 Z"/>
    <path fill="#F25C19" d="M15.9984,27.9999 L16.0004,27.9999 L16.0004,27.9989 L15.9984,27.9999 Z M7.2344,27.9999 L0.0004,31.9999 L8.0004,31.9999 L15.9984,27.9999 L7.2344,27.9999 Z"/>
    <polygon fill="#FFF200" points="0 23.999 0 31.999 4 24.417 4 16"/>
    <polygon fill="#FFF200" points="0 0 0 8 4 16 3.339 7.652"/>
    <polygon fill="#F1471D" points="32 0 28.869 7.234 27.999 16 32 8"/>
    <polygon fill="#F1471D" points="28.731 25.391 32.001 32 32.001 24 27.999 16"/>
    <polygon fill="#FAB20B" points="0 0 0 .001 4 16 13.426 14.19 16 4"/>
    <path fill="#F47216" d="M32.0004,0 L32.0004,0.001 L32.0004,0 Z M16.0004,4 L17.2524,14.051 L27.9994,16 L32.0004,0.001 L16.0004,4 Z"/>
    <polygon fill="#F25C19" points="17.808 17.392 16 28 32 32 32 31.999 27.999 16.001"/>
    <path fill="#F89C0E" d="M0.0002,31.9985 L16.0002,27.9995 L13.6352,18.1555 L3.9992,16.0005 L0.0002,31.9985 Z M0.0002,31.9985 L0.0002,31.9995 L0.0002,31.9985 Z"/>
    <polyline fill="#F68712" points="16 4 4 16 16 28 27.999 16 16 4"/>
  </g>
</svg>
